<?xml version="1.0" encoding="UTF-8"?>
<svg id="Capa_2" data-name="Capa 2" xmlns="http://www.w3.org/2000/svg" viewBox="0 0 400.84 415.15">
  <defs>
    <style>
      .cls-1 {
        fill: #99060a;
      }

      .cls-2 {
        fill: #0568af;
      }

      .cls-3 {
        fill: #7f818e;
      }

      .cls-4 {
        fill: #00b6ee;
      }

      .cls-5 {
        fill: #f7fefe;
      }

      .cls-6 {
        fill: #474a67;
      }

      .cls-7 {
        fill: #8efcfe;
      }
    </style>
  </defs>
  <g id="vector">
    <path d="M400.84,246.14c-2.14,10.73-6.14,20.52-13.82,28.61-4.8,5.06-10.33,8.46-17.14,10.45-4.61,1.35-9.14,3.98-12.94,6.99-37.24,29.51-74.37,59.15-111.4,88.92-11.12,8.94-21.92,18.31-32.7,27.67-9.3,8.08-13.27,8.59-23.03,.8-35.21-28.07-70.26-56.33-105.41-84.48-11.41-9.14-23.58-17.44-34.18-27.42-8-7.53-17.42-11.51-26.9-16.05C7.31,273.97,1.7,259.55,.07,243.19c-.54-5.41,1.94-10.06,7.08-13.36,3.21-2.06,5.47-5.66,8.06-8.64,2.17-2.5,4.21-5.1,6.3-7.66,1.64-2,1.94-3.56-.78-5.14-12.5-7.25-16.01-20.88-10.6-34.52,3.32-8.39,9.02-14.01,16.19-18.13,9.44-5.43,14.15-13.51,16.55-23.61,.68-2.87,1.53-5.92,3.18-8.27,1.38-1.96,3.98-4.14,6.15-4.26,5.04-.29,7.3-3.31,8.23-7.23,1.79-7.54,2.94-15.23,4.29-22.88,.36-2.05,.44-4.14,.78-7.47,2.17,1.65,3.6,2.38,4.55,3.51,5.74,6.8,10.4,14.31,12.25,23.07,1.16,5.51,4.5,7.32,9.38,7.63,10.38,.67,22.46-8.2,24.72-19.31,2-9.86,2.91-19.97,3.75-30.02,1.1-13.03,.97-26.19,2.66-39.13,1.29-9.87,6.3-18.55,14.24-26.78,2.28,9.85,4.08,18.72,6.43,27.44,1.54,5.72,3.53,11.39,5.99,16.77,2.06,4.5,5.49,7.31,11.17,7.77,2.73,.22,6.91,3.36,7.48,5.86,3.01,13.07,12.08,19.77,23.13,25.53,6.74,3.51,12.3,4.23,18.43-.6,2.57-2.03,5.68-3.41,8.6-4.98,6.71-3.6,11.42-8.19,12.61-16.5,1.17-8.14,6.04-10.37,16.06-9.06,8.98-16.23,12.33-34.54,17.49-53.23,6.2,6.94,9.19,14.25,11.37,21.82,3.5,12.19,4.98,24.64,4.41,37.39-.6,13.33,.3,26.58,5.04,39.24,3.22,8.58,8.22,15.52,18,17.55,8.55,1.77,13.27-.7,16.21-9,2.42-6.83,3.63-14.23,9.37-19.43,1.61-1.46,3.43-2.7,5.15-4.04,.67,1.94,1.57,3.83,1.98,5.82,1.57,7.75,2.76,15.58,4.53,23.29,.96,4.19,3.85,6.26,8.44,7.2,2.63,.54,5.3,3.76,6.78,6.43,1.97,3.56,2.96,7.7,4.1,11.67,2.26,7.92,7.48,13.02,14.06,17.84,6.4,4.69,12.28,10.71,16.72,17.28,6.54,9.68,3.29,19.41-3.31,28.06-8.44,11.06-8.64,11.09-.32,21.52,2.83,3.54,6.54,6.36,9.65,9.69,1.63,1.74,2.84,3.89,4.24,5.85v7.98Zm-200.52-69.92c2.3-1.11,4.55-2.65,7.02-3.28,6.78-1.73,11.33-6.09,14.66-11.85,2.64-4.57,4.78-9.43,7.34-14.06,.7-1.26,2.07-2.15,3.13-3.21,.57,1.38,1.53,2.74,1.62,4.15,.13,2.12-.34,4.28-.61,6.93,22.99-20.8,44.91-105.03,32.97-120.79-3.3,9.72-6.35,20.34-10.51,30.52-4.15,10.14-8.36,20.43-16.89,28.49v-10.63c-3.61,7.1-6.67,13.46-12.84,17.21l-1.41-.7c.76-3.07,1.52-6.15,2.28-9.24-.47-.05-.84-.21-1.05-.09-6.45,3.74-12.94,7.43-19.32,11.31-5.85,3.56-7.96,3.32-13.5-.43-6.08-4.11-12.53-7.69-18.82-11.51-.32,2,.46,3.14,.56,4.32,.15,1.84-.17,3.72-.29,5.58-1.69-1.01-3.91-1.63-4.96-3.1-2.85-3.98-5.21-8.31-8.25-13.3v10.69c-.62,.16-1.23,.33-1.85,.49-12.24-18.66-18.91-39.79-26-62.32-4.48,46.31,5.91,87.05,33.31,123.18,.06-1.64-.48-3.2-.47-4.76,.01-1.78,.52-3.57,.81-5.35,1.41,1.16,3.21,2.07,4.16,3.52,1.89,2.9,3.35,6.09,4.92,9.19,3.88,7.67,9.04,13.82,17.85,16.11,2.18,.57,4.16,1.95,6.15,2.92Zm67.6,77.74c-.1-.45-.3-1.36-.51-2.26-2.98-12.53-1.55-23.44,10.78-30.65,3.87-2.26,1.52-4.13-.77-5.96-4.28-3.42-8.46-6.97-12.67-10.47,.34-.55,.68-1.1,1.02-1.65,1.67,.34,3.41,.47,5,1.05,11.34,4.16,22.62,8.48,33.98,12.59,2.48,.9,5.18,1.18,7.78,1.75,.29-.43,.57-.85,.86-1.28-2.11-4.21-4.74-8.25-6.19-12.67-1.38-4.23-2.6-9.03-1.95-13.28,.94-6.19,.48-8.07-5.96-7.74-6.1,.31-12.14,1.58-18.21,2.39-6.23,.83-12.51,3.11-18.83-.78,16.94-8.2,35.6-9.98,54.15-14.19-13.53-8.29-11.7-20.2-8.07-32.92-1.8,.69-2.58,1.28-3.3,1.21-1.66-.17-3.29-.67-4.93-1.03,.81-1.42,1.34-3.18,2.51-4.19,1.78-1.53,4.01-2.53,7.07-4.36-1.95-.13-2.56-.25-3.17-.2-12.88,1.11-21.26-5.04-26.01-16.52-2.18-5.27-3.69-10.83-5.87-17.36-5.12,8.64-9.41,16.49-10.44,25.44-1.75,15.13,2.13,30.78-4.09,45.54-.18,.43-.21,1.05-.03,1.47,.36,.84,.71,1.88,1.4,2.35,4.6,3.16,4.73,4.2,.75,8.37-3.31,3.47-7.27,6.53-9.77,10.5-5.19,8.22-9.48,17.01-14.36,25.43-3.36,5.8-1.66,11.94-1.74,17.96,0,.71,.96,1.63,1.7,2.12,9.98,6.51,19.99,12.96,29.89,19.35ZM92.29,130.29c1.27,.72,2.79,1.21,3.77,2.22,1.59,1.64,2.83,3.61,4.22,5.45-1.99,.15-3.98,.29-5.96,.45-.47,.04-.93,.15-.96,.15,.64,6.16,2.76,12.49,1.46,18.03-1.26,5.41-6.01,10.01-9.24,14.99,31.22,4.71,49.35,9.63,52.88,14.69-2.04,.12-3.81,.43-5.55,.29-8.92-.72-17.89-1.15-26.73-2.46-10.81-1.61-10.54,2.55-11.49,9.67-.98,7.4-1.27,14.86-6.23,21.06-.58,.72-.51,1.97-1.16,4.84,11.51-4.23,21.7-7.88,31.81-11.73,4.63-1.76,9.08-4.02,13.7-5.82,1.62-.63,3.52-.54,5.29-.78,.25,.58,.51,1.16,.76,1.74-6.32,4.94-12.65,9.88-19.27,15.05,14.17,8.36,17.18,21.05,12.85,36.04,8.18-5.36,15.77-11.06,24.04-15.52,6.8-3.67,8.72-8.63,8.11-15.79-.95-11.13-6.59-20.02-12.94-28.59-4.84-6.54-10.01-12.83-15-19.27-1.7-2.19-2.58-4.28,1.47-4.68,3.14-.31,3.53-1.66,2.8-4.72-1.5-6.27-2.47-12.68-3.41-19.06-2.08-14.1-3.77-28.26-6.14-42.3-.73-4.31-3.16-8.32-4.8-12.47-.53,0-1.06,0-1.59,0-1.19,21.16-7.44,37.85-32.69,38.52Zm64.53,51.67c7.37,9.03,13.29,18.51,16.4,29.92,1.78,6.51,5.47,12.83,9.53,18.32,9.94,13.44,34.17,10.63,39.78-5.36,1.04-2.96,2.76-5.74,3.41-8.77,2.81-13.15,8.68-24.63,17.53-34.29-.56-1.78-.89-3.64-.25-5.07,.99-2.24,2.6-4.22,4.01-6.26,5.98-8.62,9.36-23.03,7.27-31.38-3.57,4.41-5.78,9.06-5.39,14.99,.47,7.28-3.01,12.81-9.27,16.42-3.73,2.15-7.65,3.97-11.5,5.91-5.92,2.98-10.39,7.29-11.7,13.98-.69,3.51-2.51,3.19-5.16,2.4,.15-7.86-6.75-9.68-10.57-12.91-3.29,1.44-6.57,1.98-8.37,3.91-1.96,2.1-2.26,5.65-3.81,8.25-1.67,2.8-3.44,1.09-4.51-.73-2.19-3.71-3.75-7.85-6.33-11.23-1.73-2.26-4.58-4.44-7.29-5.06-12.51-2.83-17.95-9.13-19.23-21.86-.48-4.8-2.71-9.42-4.15-14.12-.62,.16-1.24,.31-1.86,.47,.13,2.75,0,5.55,.44,8.25,1.4,8.67,3.01,17.18,9.13,24.24,2.1,2.42,4.83,5.79,1.9,9.99Zm186.66,53.22c1.78-2.69,3.26-4.93,4.84-7.33,4.38,2.89,3.96,6.96,3.21,10.23-2.86,12.43,3.96,22.42,7.74,33.16,.96,2.75,3.06,3.23,6.07,2.12,11.38-4.2,18.14-12.4,21.49-23.75,1.48-5.01,.45-6.86-4.71-8.46-2.53-.78-5.28-1.08-7.59-2.27-4.24-2.2-8.23-4.9-12.32-7.39,.23-.62,.47-1.23,.7-1.85h12.1c-4.12-5.5-7.54-10.4-11.32-15.01-3.61-4.39-7.6-8.47-11.43-12.68-.39,.33-.78,.66-1.17,.99,.25,.59,.63,1.15,.73,1.76,.38,2.45,.68,4.91,1.01,7.37-2.38-1.13-4.78-2.24-7.14-3.42-.42-.21-.69-.71-1.05-1.06-6.06-5.84-11.93-11.91-18.3-17.39-1.97-1.69-6.53-3.28-7.75-2.28-1.97,1.61-3.58,5.89-2.8,8.17,1.65,4.85,4.01,10.22,7.75,13.44,8.36,7.2,14.82,15.56,19.94,25.64Zm-305.63-5.62c.23,.37,.47,.75,.7,1.12-1.98,1.75-3.69,4.11-6,5.13-4.91,2.19-10.05,3.98-15.24,5.36-3.41,.91-4.96,2.65-4.1,5.86,2.64,9.86,7.37,18.33,16.38,23.94,7.85,4.88,9.87,4.13,13.5-4.13,4.43-10.09,8.39-20.05,6.03-31.48-.43-2.1,1.34-4.67,2.1-7.02,1.52,1.93,3.04,3.86,4.56,5.78,.17,.21,.42,.36,.85,.72,.84-1.03,1.85-1.92,2.44-3.04,5.03-9.52,12.06-17.23,19.99-24.5,3.14-2.88,4.67-8.23,5.52-12.72,1.23-6.47-1.95-8.78-7.56-5.3-5.96,3.69-11.19,8.6-16.53,13.21-3.65,3.15-6.94,6.72-10.39,10.1-.49-.3-.98-.6-1.47-.89v-8.37c-.41-.22-.82-.45-1.23-.67-7.4,8.56-14.88,17.06-22.08,26.91h12.53Zm191.08,124.83c-5.23,2.62-11.51,5.22-17.19,8.78-6.1,3.82-12.16,4.28-18.47,1.61-5.79-2.45-11.33-5.49-17.01-8.18-5.85-2.78-6.03-2.68-8.74,2.93-.43,.89-.77,1.97-1.48,2.55-1.08,.88-2.46,1.39-3.71,2.06-.59-1.21-1.62-2.39-1.69-3.63-.22-3.85-.08-7.72-.08-12.93-7.38,11.07-6.73,15.78,2.09,22.73,10.96,8.63,22.07,17.09,32.87,25.93,3.3,2.7,5.68,2.91,8.97,.26,11.64-9.38,23.38-18.64,35.17-27.81,6.08-4.73,6.81-14.57,.43-21.31-.39,5.96-.72,11.09-1.06,16.23-.35,.3-.71,.6-1.06,.89-2.67-2.99-5.33-5.97-9.02-10.11Zm-62.47-43.87c-.68,4.95-1.21,9.04-1.81,13.12-1.14,7.69-.86,8.41,5.96,12.45,2.85,1.69,5.92,3,8.75,4.7,4.95,2.99,10.51,5.43,14.47,9.44,3.93,3.97,6.89,3.92,10.97,1.22,7.74-5.11,15.38-10.4,23.39-15.06,8.93-5.2,9.04-4.93,7.37-14.97-.54-3.27-.76-6.59-1.17-10.26-8.15,2.35-3.51,8.95-6.57,14.24-2.19-2.74-3.9-4.88-5.33-6.67-7.16,2.31-14.63,6.56-22.13,6.61-7.41,.04-14.84-4.17-22.45-6.58-1.18,1.73-2.82,4.14-4.81,7.08-3.12-5.06,.21-11.45-6.63-15.33ZM52.4,150.86c-4.3,3.65-8.86,7.49-13.38,11.38-4.4,3.79-9.05,7.35-13,11.56-2.52,2.68-4.71,6.15-5.7,9.65-1.33,4.67,.12,9.36,4.21,12.41,3.82,2.85,8.24,2.09,11.55-.67,3.33-2.78,5.74-6.64,8.64-9.95,1.12-1.29,2.46-2.39,3.69-3.57,.98,1.06,1.95,2.11,3.17,3.44,11.8-19.19,20.13-39.33,18.94-62.39-1.83,4.53-3.12,9.26-4.95,13.77-1.92,4.74-4.17,9.37-6.68,13.83-.95,1.69-3.01,2.76-4.56,4.11-.88-1.62-1.76-3.24-1.93-3.55Zm299.49,30.57c1.84,1.77,3.37,3.16,4.81,4.65,3.44,3.58,6.57,7.51,10.32,10.72,3.9,3.34,7.27,2.39,9.81-1.96,5.26-9.03,4.5-14.92-2.9-22.15-1.42-1.39-2.85-2.81-4.44-3.99-8.07-6.01-16.51-11.65-20.25-21.71-.08-.2-.5-.28-1.18-.63v10.12c-12.16-8.67-11.71-22.84-18.34-33.74-.82,16.82,14.28,63.36,20.02,62.69,.61-1.12,1.21-2.23,2.16-4.01Zm-183.53,92.8c0,6.92-.07,12.78,.09,18.64,.02,.68,1.2,1.48,1.99,1.98,10.08,6.29,20.19,12.53,30.43,18.87,4.18-2.98,8.49-6.31,13.06-9.22,4.6-2.92,9.87-4.92,14.06-8.3,2.52-2.03,4.55-5.78,4.98-9.01,.51-3.83-.93-7.92-1.52-11.85-8.03,.99-7.11,8.96-10.55,14.02-2.78-3.73-5.49-6.66-9.79-3.56-7.84,5.64-15.44,4.55-23.08-.42-2.7-1.76-5.19-2.71-5.94,2.05-.15,.95-2,1.63-3.07,2.44-.46-.96-1.51-2.08-1.3-2.85,2.1-7.48-3.74-9.17-9.38-12.8Zm87.72,29.26c.41,5.36,.7,9.48,1.05,13.59,.69,8.09,1.22,16.21,2.17,24.27,.93,7.87,3.5,8.95,9.88,4.3,4.42-3.22,8.47-6.94,12.9-10.14,3.26-2.36,3.8-5,2.3-8.53-5.61-13.16-11.15-26.34-16.72-39.52-.39,.07-.78,.14-1.17,.22,1.62,10.92,3.23,21.83,4.89,32.98q-6.15-1.24-15.3-17.17Zm-121.53-14.89c-.33,.04-.66,.07-.99,.11-5.5,11.26-11.01,22.51-16.48,33.78-2.74,5.63-2.51,8.72,2.11,12.9,5.99,5.42,12.42,10.34,18.8,15.59,3.78-8.33,6.82-36.75,4.88-43.94-1.34,2.4-2.26,4.99-3.96,6.9-2.17,2.45-6.06,6.64-7.28,6.05-3.98-1.91-1.97-6.26-1.33-9.72,1.35-7.24,2.83-14.45,4.25-21.68Zm148-15.71c2.59,.4,4.2,.71,5.83,.89,6.25,.69,7.94-.83,8.75-7.01,.98-7.47,2.41-14.89,3.3-22.37,.18-1.54-.68-3.91-1.87-4.78-3.15-2.31-5.62-1.8-6.78,2.6-.73,2.77-2.38,5.3-3.62,7.94-.43-.22-.86-.44-1.29-.66-.4-1.55-.8-3.1-1.2-4.65-.5,.02-.99,.04-1.49,.05-.54,9.28-1.09,18.56-1.64,27.98Zm-179.37,1.51c3.45-.24,6.49,.24,8.88-.81,2.42-1.06,5.86-3.55,5.95-5.53,.28-6.72-.72-13.5-1.23-20.29-2.09,1.16-3.29,2.35-4.36,2.25-.81-.08-1.64-1.74-2.12-2.84-.72-1.66-.76-3.72-1.78-5.11-1.07-1.45-2.91-3.18-4.47-3.24-2.55-.08-4.11,1.81-3.59,4.74,.29,1.62,.45,3.27,.71,4.9,1.33,8.25,5.21,16.24,2.02,25.93Zm3.37,17.25c-.33-.44-1.12-2.38-1.93-2.38-1.43-.01-3.64,.77-4.19,1.88-3.09,6.22-5.83,12.61-8.58,18.99-1.19,2.77,1.33,7.12,5.38,8.08,1.39,.33,4.34-1.58,4.95-3.11,1.67-4.17,5.56-7.78,2.68-13.4-1.13-2.2,.9-6.01,1.68-10.05Zm194.67,28.02c7.62-3.29,8.94-6.54,5.83-13.4-1.92-4.22-4.09-8.35-5.69-12.69-2.02-5.5-1.97-5.64-7.41-2.89,.82,4.96,4.63,9.88,.29,15.01-.28,.33,.32,1.56,.69,2.27,2.07,3.93,4.2,7.84,6.29,11.71Zm-83.36-67.73c-3.74,.74-7.17,1.71-10.66,2.05-6.24,.61-12.58,2.58-18.62-1.66-.95-.67-4.96,1.1-5.86,2.7-1.54,2.73,.89,3.67,3.5,4.35,8.81,2.29,17.33,2.16,26.36,.16,5.15-1.14,6.58-2.37,5.29-7.6Zm-139.34,51.51c6.47-12.61,9.02-25.78,10.43-39.34-2.39,10.16-7.18,18.99-13.45,27.15-4.59,5.97-4.24,7.21,3.02,12.19Zm244.34-.7c5.91-3.62,6.39-5.57,3.23-10.74-4.92-8.04-9.84-16.09-14.26-23.31,1.7,11.05,2.59,23.66,11.03,34.04Zm-251.69-28.86c-.46-.19-.91-.39-1.37-.58-3.67,2.8-7.46,5.45-10.93,8.48-1.16,1.01-2.41,4-2.03,4.35,2.12,1.94,4.6,3.67,7.25,4.73,.71,.28,3.15-1.79,3.6-3.17,1.46-4.51,2.36-9.19,3.48-13.81Zm273.6,11.29c-5.22-4.34-9.79-8.14-14.36-11.93-.34,.16-.69,.31-1.03,.47,1.82,6.19,3.63,12.38,5.72,19.49,3.6-2.99,6.33-5.25,9.67-8.03Z"/>
    <g id="g_0" data-name="g 0">
      <g>
        <path d="M187.21,132.98c6.04,8.77,29.04,4.91,32.21-2.72,2.57-8.64-10.49,1.9-15.13,.6-5.78,2.02-29.6-10.28-17.08,2.12Z"/>
        <path d="M211.83,221.39c-6.2,8.53,2.33,9.91,4.34,2.92,2.47-1.55,4.04,4.85,8.84-1.76,5.34-6.73-6.85-12.25-7.61-8.26-5.46,2.71-5.27,8.07-5.58,7.1Z"/>
        <path d="M194.17,200.18c-10.3,6.28,12.5,5.01,15.12,3.74,.5-.69-.55,.97-2.22,.64,.95,.17,3.88,.09,5.02,.11,.8-7.47-14.02-9.66-17.92-4.49Z"/>
        <path d="M190.25,218.01c-5.32-11.21-18.49-.15-9.26,6.87,4.3,3.15,4.07-2.45,5.94-1.26,5.58,10.94,10.4,3.2,3.32-5.6Z"/>
        <path d="M207.54,209.67c1.39-3.73-18.17-2.76-15.95,5.25,2.41-.1,31.8,1.97,15.95-5.25Z"/>
        <path d="M215.19,146.57c-15.28,15.77-32.61-10.2-31.3,1.14,16.92,38.7,48.14-11.95,31.3-1.14Z"/>
      </g>
      <path id="Eyes" class="cls-1" d="M56.49,196.82c-3.11-.84,8.24-9.9,8.85-12,1.3-1.75,2.5-3.15,2.7-3.15,.52,.03,1.72-4.5,2.3-4.45,2.19,8.21-2.64,21.13-13.85,19.6h0Zm286.45-.2c-6.02-1.67-7.91-6.27-9.65-10.3,.55-4.08-2.67-5.85-1.7-8.95,0-.91,1.5-.91,1.5,0-.13,.82,1.98,1.02,1.95,1.65-.92,5.98,22.86,20.92,7.9,17.6h0Zm-178.65-24l-.95-1.1c.73,.52,5.53,2.42,2.9,2.15-.55,0-1.4-.5-1.95-1.05h0Zm5.2,.05c-9.04-2.43-10.23-11.69-11.65-19.05,1.19-1.02,3.27-.33,2.95,1.3,.26,1.47,3.54,5.17,4.3,6.25,0,.45,2.9,3.8,6.9,7.85,3.69,3.34,1.61,4.81-2.5,3.65Zm69.6-.35c.69-.33,4.62-3.76,1.9-1-1.08,1.3-3.9,2.83-1.9,1Zm-9.25-.2c-.2-.25,.75-1.65,2.1-3.1,5.76-5.76,4.11-5.3,5.85-6.85,.4,0,.85-.4,1.05-.95,.24-1.12,2.26-2.39,2.25-3.6,.27-1.47,2.09-1.16,2.2-3.15,5.45-9.97,.59,23.9-13.45,17.65Z"/>
      <g>
        <path class="cls-6" d="M33.79,201.95c3.6-.43,9.4-5.21,11.85-10.08,.31-.64,.62-1.24,.89-1.71,.19-.25,.38-.53,.61-.89l1.05-1.6h-.2c.18-.38,.37-.81,.55-1.25,.05-.11,.08-.2,.12-.3,.25-.26,.49-.45,.63-.45,.39,0,.4,1.46,.09,3.31-.02,.08-.03,.15-.04,.24-.01,.09-.02,.15-.04,.23-.16,.86-.38,1.79-.66,2.67-.19,.64-.36,1.25-.48,1.77-.23,.41-.46,1.16-.77,2.43-.45,1.85-.1,1.7,1.2-.5,.2-.33,.35-.6,.46-.84,.72-.43,1.51-1.07,1.54-1.36,0-.13,.75-1.18,1.73-2.5,.1-.04,.2-.09,.27-.15,.27-.27,.41-.55,.46-.8l2.14-2.75-.11-.04c.28-.45,.56-.95,.77-1.38,.16-.06,.25-.23,.25-.53,0,0,0-.01,0-.02,.04-.11,.08-.21,.1-.28,.03-.09,.03-.19,.04-.28,.07-.13,.17-.22,.26-.22,.35,0,1.55-1.79,1.92-2.72,.54-.68,1.19-1.88,2.33-3.93,.81-1.46,1.21-2.17,1.26-2.52,.29-.42,.59-.94,.89-1.58,.29-.6,.49-1.11,.64-1.56,.24-.17,.45-.63,.86-1.54,1-2.35,2.9-7.3,4.45-11.65,1.11-3.1,2.95-10.86,4.01-16.84,.13-.51,.2-.91,.21-1.21,.01-.07,.02-.13,.03-.2,.9-5.2,1.15-17.75,.55-23.75-.65-6.35-1.8-13.9-2.15-14.25-.15-.15-.4,2.95-.55,6.85-.2,3.95-.55,8-.8,9.05-.25,1-.25,1.85-.05,1.85,.25,0,.35,3.1,.25,6.9-.25,9.95-2.4,19.55-7,31.55-1.9,5.05-6.85,15.25-8.25,17.05l-1,1.25v-1.3c0-.75-.15-2.05-.3-2.9-.3-1.35-.55-1.55-1.95-1.55-1.55,0-1.65,.1-3.95,5.65-3.85,9.15-7.35,14.35-12.05,17.9-3.7,2.75-5.4,2.95-9.55,1-3.95-1.85-5.85-2.05-5.3-.55,.45,1.2,3.3,4.25,4.95,5.35,.65,.45,1.9,.95,2.8,1.15,1.46,.35,2.01,.47,2.22,.37,.13-.01,.26-.03,.38-.07,.55-.15,1.4-.3,1.9-.3,.22,0,.4-.09,.55-.22Z"/>
        <path class="cls-6" d="M370.67,248.21l-.22-2.64-2.4,.25c-2.3,.3-2.45,.2-3.4-1.3-.5-.9-2.3-4.7-4-8.45-5.8-13.15-9.65-20.15-13.65-24.65-1.15-1.35-1.9-1.75-3.2-1.75-1.65,0-1.7,.05-1.7,2.1v2.1l-1.45-2c-.8-1.05-4.1-4.3-7.35-7.2-8.85-7.95-11.25-11.15-12.7-16.85-.3-1.25-.85-2.15-1.25-2.15-1.2,0-3.25,5.05-3.6,8.8-.1,1.25-.08,2.61,.02,3.98-.12,.17-.24,.39-.32,.72-.15,.55-.05,1,.2,1,.13,0,.24,.09,.32,.23,.64,4.88,2.28,9.52,3.98,10.12,.72,.26,4.06,2.7,6.65,4.78l2.15,2.27c1.55,1.55,3.25,3.45,3.85,4.25,.12,.15,.23,.28,.34,.42,4.73,6.36,11.16,16.1,11.16,17.33,0,.25,.4,.8,.95,1.3,.75,.65,1,.7,1.45,.2,.8-.99,2.76-5.21,3.67-7.71,.12-.14,.24-.3,.38-.54,.42-.79,.49-.84,.75-.15,.38,2.93,.27,9.86-.3,14.8l-.55,5.1,2.5,5.9c1.4,3.3,2.7,6.45,2.9,7.1,.08,.3,.19,.58,.31,.78,.34,.91,.67,1.81,.94,2.56,.02,.06,.04,.12,.06,.18,.35,.98,.61,1.7,.63,1.83,.1,.3,.3,.9,.55,1.4,.13,.3,.26,.49,.37,.63,.16,.47,.35,.98,.56,1.51,.01,.42,.19,1.03,.56,1.86,.16,.37,.32,.6,.47,.72,.46,1.15,.78,1.96,.78,2.03h0s.45,.1,.95,.1c1.3,0,2.6-1.95,4.7-7,3.11-7.52,4.36-13.54,4.17-20.02,.21-2.26,.23-3.38-.25-3.94Z"/>
        <path class="cls-6" d="M166.39,216.92c-1.4-4.65-2.79-8.04-3.94-9.67-.11-.46-.35-1.05-.71-1.83-.12-.25-.24-.46-.36-.65-1.06-2.61-6.27-10.59-10.24-15.6-3.29-4.12-9.8-11.21-12.36-13.61-.05-.11-.1-.23-.19-.39-.45-.9-.4-1,.75-1,.38,0,.66-.1,.87-.24,1.74,.18,3.8,.15,4.33-.21,.6-.4,.5-1.25-.7-5.4-.75-2.7-1.55-5.15-1.8-5.45-.25-.3-.35-.65-.2-.75,.1-.15-.25-2.35-.8-4.95-1.15-5.55-1.8-18.35-1.05-22.5,.25-1.5,.85-4.25,1.35-6.1l.95-3.3-3.85-8.95c-2.05-4.9-4.75-11.35-5.95-14.4-.84-2.2-1.68-4.2-2.17-5.18-.28-1.57-1.49-4.57-2.38-5.62-.45-.5-.85-1.3-.85-1.7,0-.14-.07-.26-.16-.38-.18-1.2-1.07-2.87-1.69-2.87-.8,0-.85,1.85-.1,4.8,.04,.15,.08,.29,.13,.42,.13,.81,.36,1.85,.67,3.18,.51,2.15,.71,3.01,1.15,3.36,0,.37,0,.76,0,1.19,0,5.4,.1,5.95,.95,6.2,.7,.15,1.1,1,1.55,3.15,.35,1.65,1.35,5.9,2.3,9.45l1.7,6.5-.55,8.1c-.65,9.25-.1,19.5,1.5,28.15,.55,2.9,1.1,6.1,1.2,7.15l.3,1.85h-9.45v1.45c0,1.2,1,2.5,5.5,7.05,17,17.2,26.15,32.8,27.9,47.55,.6,4.7-.05,8.95-1.3,8.95-.2,0-2.75,2.25-5.6,5.05-2.9,2.8-6.55,6.1-8.15,7.35-3.15,2.45-4.35,4.25-4.35,6.35v1.3l2.25-1.6c1.25-.9,2.25-1.8,2.25-2.05,0-.2,.35-.4,.75-.4s.75-.2,.75-.5c0-.25,.25-.5,.6-.5,.6,0,3.73-2.07,5.63-3.59l1.87-1.11c.64-.39,1.14-.72,1.5-.99,.62-.2,1.35-.55,1.95-.96,.95-.6,3-1.85,4.6-2.75,5.2-2.95,5.1-2.75,5.05-11.35-.05-6.65-.2-8-1.4-12Z"/>
        <path class="cls-6" d="M81.59,211.92c2.85-1.75,4.15-3.1,3.85-4-.15-.35,0-.8,.35-.9,1-.4,2.3-6.35,2.3-10.35,0-3.65-1.45-9.1-2.75-10.45-1.15-1.15-2.1-.3-2.35,2.15-.45,3.9-3.6,7.85-14.1,17.8-2.15,2.05-4.75,4.7-5.75,5.9l-1.85,2.1,.2-2,.2-2h-1.95c-1.05,0-2.25,.3-2.65,.65-.4,.3-.3,.05,.25-.65,1.7-2.15,13.45-13.6,14.8-14.45,2.8-1.75,4.95-4,4.95-5.25v-1.25l-1.8,1.1c-1,.6-2.4,1.5-3.1,1.95-.75,.5-1.8,1.1-2.35,1.35-.53,.24-2.75,2.14-5.15,4.3-.15,.08-.34,.21-.6,.4-.6,.4-1.45,1.25-1.85,1.85-1,.93-1.93,1.82-2.69,2.57v-.32s-1.96,2.25-1.96,2.25c-1.01,1.15-1.84,2.2-1.97,2.56-.03,.03-.05,.06-.08,.09-.85,.85-2.35,2.55-3.3,3.75-.44,.54-.91,1.02-1.31,1.4-.26,.14-.34,0-.34-.5,0-.06-.03-.11-.04-.17,.4-.85,.77-2.04,.85-2.85,.33-.49,.67-1.25,1.09-2.38,.17-.49,.33-.98,.47-1.43,.19-.4,.35-.87,.43-1.32,.02-.11,.04-.21,.05-.31,.09-.34,.15-.6,.15-.69,0-.09-.04-.16-.1-.23-.06-.3-.25-.42-.6-.42-.11,0-.22,.02-.32,.05-.79-.13-1.88-.07-2.68,.25-.07,.03-.13,.07-.19,.11-.14,.01-.29,.03-.41,.04-.6,.05-.7,.4-.5,1.45,.3,1.2-.25,3.65-2.25,10.4-.35,1.1-.45,2.6-.25,3.35,.25,1.15,.55,1.35,2.25,1.35s2-.2,2.85-2c.8-1.7,2-2.85,2.5-2.4,.05,.1-.55,1.2-1.4,2.4-1.95,2.9-5.6,10.2-8.9,17.75-1.4,3.3-3.25,7.15-4.05,8.6l-1.5,2.6-2.4-.3-2.45-.3-.35,4.3c-.65,7.55,1.05,15.8,4.8,23.65,1.1,2.25,1.95,4.3,1.95,4.6s.3,.65,.65,.8c2.05,.85,2.5,.2,6-8.95,1.61-4.08,2.94-7.88,3.39-9.43,.28-.16,.52-.4,.61-.67,.1-.5,.4-1.3,.6-1.75,.05-.12,.08-.21,.1-.3,.31-.51,.67-1.2,1-1.95,1.15-2.7,1.25-3.2,.85-6.9-.25-2.2-.45-7-.45-10.65,0-1.85-.04-3.55-.1-4.75,.05-.1,.09-.22,.15-.35l.55-1.25,.4,1.4c.21,.77,.46,1.21,.71,1.37,1.05,2.62,3.23,6.65,3.89,6.88,.35,.1,1.1-.8,1.7-2,1.7-3.4,6.9-11.9,9.1-14.9,2.75-3.75,10.1-11.05,12.85-12.75Z"/>
        <path class="cls-6" d="M88.54,255.17c-.2,0-.4,1.5-.35,3.4,.05,9-3.55,19.35-10.35,29.75-1.5,2.35-2.75,4.45-2.75,4.65,0,.07,0,.14-.02,.23-.47,.36-.96,.95-1.68,1.92-.88,1.19-1.39,2.12-1.63,3-.97,.61-2.17,1.65-2.17,2,0,.25,2.3,2.25,5.1,4.5,2.8,2.2,5.3,4.05,5.5,4.05,.55,0,1.8-2.05,2.15-3.6,0-.02,0-.03,.01-.05,.45-.68,.96-1.8,1.25-2.71,.34-.49,.74-1.31,1.24-2.54,.75-1.85,1.55-3.8,1.8-4.35,4.55-10.7,6.6-25,4.7-33.05-.85-3.75-2.2-7.2-2.8-7.2Z"/>
        <path class="cls-6" d="M147.14,299.42l-.05-2.5-1.05,2.25c-.55,1.25-1.7,3.9-2.5,5.95-1.95,4.85-4.9,9.8-8,13.55-.86,1.04-1.55,1.79-2.08,2.28-.64,.34-1.26,.23-1.23-.28,0-.02,0-.04,.01-.06,0-.06,.02-.12,.05-.2,.04-.11,.06-.2,.06-.29,.21-.88,.16-.94-.57-.44-.06,0-.11-.02-.19-.02-.66,0-.91,.25-.98,1.1-.51,.59-1.06,1.35-1.52,2.1-.8,1.25-1.7,2.3-2,2.3-.25,0-.5,1-.5,2.25v2.25h1.9c1.35,0,2.75-.55,4.9-1.95,1.6-1.05,3-1.75,3.1-1.55,.15,.45-5.3,16.9-6.55,19.6l-.85,1.85,3.75,3.15c1.38,1.15,2.66,2.14,3.46,2.69,.43,.41,1.02,.92,1.69,1.41l2.35,1.9,.03-.26c.19,.09,.35,.16,.47,.16,.85,0,1.95-3.65,1.6-5.35-.1-.65-.05-1.15,.15-1.15,.55,0,2.35-9.9,3.25-17.75,.75-6.55,1.65-23.95,1.45-28.5-.05-1.1-.1-3.1-.15-4.5Z"/>
        <path class="cls-6" d="M222.04,264.67c-.25,0-.35-.2-.2-.5,.15-.25,.05-2.25-.25-4.4-.45-3.25-.4-4.5,.25-6.9,.9-3.55,1-6.2,.15-6.2-.6,0-1.2,.85-4.35,6.25-3.9,6.65-11.45,9.75-19.75,8.05-2.15-.45-5-1.4-6.35-2.1-2.2-1.25-4.65-3.95-5.05-5.65-.1-.35-.65-1.25-1.25-1.9-.6-.7-1.4-1.9-1.75-2.7-.75-1.75-2.15-1.95-2.25-.3,0,.6,.3,2.65,.7,4.5,.7,3.3,.6,6-.6,13.5-.15,.75,0,1.35,.25,1.35,.41,0,2.06-1.9,2.98-3.28,.23-.17,.5-.41,.82-.77,.6-.65,1.35-.95,2.05-.8,.17,.03,.31,.04,.44,.04,.32,.13,.66,.27,1.01,.46,1.35,.7,3.65,1.5,5.1,1.8,3.4,.7,14.45,.75,14.85,0,.2-.3,.6-.4,.95-.3,.35,.15,1.7-.3,3.1-.9,2.01-.96,3.14-1.35,4.13-1.03,.48,.34,1.22,1.06,1.97,1.88l1.85,2.05,.03-.31c1.11,.96,1.72,.79,1.72-.59,0-.7-.25-1.25-.55-1.25Z"/>
        <path class="cls-6" d="M260.24,252.77c1.35,1.05,2.65,1.9,2.9,1.9,.9,0,.45-2.45-.6-3.15-.55-.4-1.5-1.4-2.1-2.25-.65-.8-3.7-3.9-6.85-6.85-3.15-2.95-6.7-6.25-7.8-7.35-2.45-2.25-2.7-3.5-2.1-9.4,1.05-10.05,5.95-20.8,14.65-32.25,4.5-5.9,11.25-13.5,15.6-17.45,2.3-2.15,2.65-2.7,2.65-4.4v-1.9h-4.5c-2.7,0-4.5-.2-4.5-.5s.55-3.25,1.2-6.65c2.2-11.15,2.8-21.4,1.8-32.35l-.5-5.25,2.6-10.25c1.4-5.65,2.7-10.35,2.95-10.5,.44-.28,.8-4.27,.85-7.07,.81-.25,1.1-1.28,1.1-3.68,0-1.2,.25-2.35,.5-2.5,.3-.15,.5-1.1,.5-2.05s-.2-1.7-.5-1.7c-.25,0-.5,.25-.5,.55,0,.35-.4,.9-.85,1.3-.5,.4-.6,.6-.25,.4,.3-.15,.6-.1,.6,.15s-.45,.6-1,.75-1,.6-1,1.05c0,1.1,.85,1,1.15-.05,.2-.75,.25-.75,.25,.1,0,.55-.15,1.45-.4,2-.35,.85-.45,.85-.45,.15-.05-1.05-1.35-.7-1.7,.5-.15,.45-.5,1.6-.75,2.5-.22,.65-.32,1.03-.29,1.26-.17,.41-.35,.88-.56,1.44-1.7,4.5-7.15,17.55-9.25,22.1q-1.75,3.7-.1,10.05c.85,3.15,1.1,5.65,1.15,11.85,0,2.2-.03,4.25-.08,5.77-.04,.23-.09,.48-.12,.78-.15,1.15-.45,3.05-.65,4.25h0l-.08,.51c-.21,1.01-.54,2.6-.87,4.09-.45,2.05-1.5,6.2-2.3,9.2-1.75,6.2-1.75,6.3,2.35,6.3,1.4,0,2.7,.15,2.85,.3,.15,.2-1.85,2.6-4.45,5.4-11.65,12.3-20,25.5-23.5,37.05-1.25,4-1.4,5.3-1.4,12.15l-.05,7.7,1.45,1.15c.5,.38,.97,.68,1.32,.84,.19,.13,.39,.26,.63,.41,.85,.55,1.65,1,1.75,1,.01,0,.02-.04,.03-.1,.86,.57,2.04,1.32,3.32,2.1,5.65,3.35,12.75,8.1,15.9,10.6h0Z"/>
        <path class="cls-6" d="M273.54,320.37c-.35-1.25-.8-1.7-1.55-1.7-.7,0-.92,.15-.81,.92-.04,.13-.01,.34,.06,.63,.35,1.25-.55,1.2-2-.15l-.39-.35c-.35-.42-.74-.89-1.16-1.45-2.95-3.9-6.75-10.95-9.15-17.1l-1.7-4.25-.4,4c-.28,3.3,.05,13.7,.66,22.77,0,.25-.01,.54-.01,.88,0,1.3,.15,2.85,.3,3.5,.01,.05,.03,.08,.05,.13,.05,.59,.1,1.17,.15,1.72,.58,6.32,2.02,15.04,3.47,21.81,.02,.13,.03,.25,.03,.34,0,.07,.04,.14,.09,.21,0,.01,0,.03,0,.04,.6,2.65,1.2,4.85,1.35,4.85,.2,0,3.45-2.55,7.3-5.6,6.7-5.45,6.9-5.65,5.4-5.8-1.5-.15-1.7-.4-3.15-4.25-1.75-4.65-5.1-15.4-4.85-15.65,.1-.1,1.35,.6,2.8,1.55,1.9,1.25,3.2,1.75,4.6,1.75,1.9,0,1.95-.05,1.95-1.85,0-1.2-.45-2.4-1.3-3.5-.7-.95-1.5-2.5-1.75-3.45Z"/>
        <path class="cls-6" d="M332.99,298.32c.4-.15-.4-1.45-2.3-3.55-2.55-2.95-4.25-5.3-6.45-8.85-2.75-4.4-7.15-15.05-7.15-17.25,0-.55-.15-1-.35-1-.45,0-.5-.75-.7-7.1-.05-2.45-.25-4.4-.45-4.4s-.75,.95-1.2,2.05c-3.7,9.2-2.9,21.6,2.4,36,2,5.5,4.7,11.8,5.95,13.85,.25,.3,.6,.6,.8,.6,.25,0,2.35-1.5,4.65-3.35,2.35-1.9,4.9-3.9,5.7-4.45l1.45-1.1-1.5-.6c-.85-.35-1.2-.7-.85-.85Z"/>
        <path class="cls-6" d="M278.74,214.17c-10.35-7.75-9.9-7.4-9.6-7.75,.15-.1,1.85,.55,3.75,1.55,1.9,.95,3.05,1.45,2.6,1.05-.5-.4-.9-1.2-.9-1.8,0-.85-.3-1.05-1.8-1.05-1.35,0-1.85-.25-2.05-.95-.3-1.1-3.15-2.55-5.15-2.55-1.4,0-1.5,.15-1.5,1.85,0,1.9,.25,2.35,6.45,11.9,1.75,2.75,3.95,6.2,4.9,7.65,.9,1.4,1.85,2.6,2.05,2.6,.85-.05,9.8-4.8,9.95-5.3,.1-.3-3.8-3.55-8.7-7.2Z"/>
        <path class="cls-6" d="M236.84,199.17c-.15-.25,0-.5,.4-.5,.57,0,1.09-.67,1.19-1.31,.18-.2,.36-.42,.56-.69,.21-.28,.41-.56,.57-.81,.33-.17,.45-.39,.42-.67,.07-.13,.11-.22,.11-.26s-.07-.08-.19-.12c-.1-.39,.05-.63,.49-.63s.7-.25,.6-.55c-.09-.25,.12-.73,.62-1.44,1.02-.98,2.95-3.17,3.68-4.22,.47-.54,.8-.99,.8-1.14s-.9-.15-2,0c-1.6,.2-2.45,.8-4.6,3.15-3.2,3.45-7.2,9.35-9.6,14.05-2.1,4.15-5.15,11.9-5.55,14.2-.3,1.55-.9,3.75-2.35,8.45-.8,2.65-2.55,4.65-5.2,6-1.35,.7-3,1.65-3.7,2.1-1.6,1.15-7.4,2.4-11.35,2.4-4.4,0-7.85-.8-12.05-2.9-4.8-2.4-7.3-4.75-8.1-7.6-.35-1.25-.9-3.3-1.3-4.6-.4-1.3-.7-2.75-.7-3.25,0-1.25-2.6-8.35-4.7-12.9-2.3-4.95-6.6-11.3-10.55-15.6-2.9-3.2-3.55-3.65-5.05-3.65h-1.75l2.8,3.75c8,10.85,12.2,19.5,15.25,31.5,.85,3.3,2,7.2,2.6,8.7,1.03,2.52,4.2,6.24,6.07,7.27,.2,.19,.44,.38,.78,.58,.56,.35,1.12,.9,1.47,1.43,.27,.79,.51,1.86,.73,3.27,.15,1.15,.25,1.15,1.05-.7,.27-.6,.46-1,.66-1.27,.1-.04,.18-.08,.29-.13,.24-.11,.43-.21,.59-.31,.24,.01,.53,.07,.91,.16,3.7,.75,7.8,1.25,11.1,1.25,4.45,0,10.2-.85,11.15-1.6,.55-.5,.9-.4,1.65,.55,.55,.65,.95,1.55,.95,2,0,.5,.15,1.05,.35,1.25,.41,.41,.99-1.94,1.04-3.6,.06-.1,.11-.22,.11-.35,0-.4,.85-1.35,1.9-2.15,1.56-1.13,3.29-2.86,4.67-4.66,.09-.08,.15-.17,.2-.26,.32-.43,.62-.85,.89-1.28l.85-1.4h-.1c.64-1.23,1.28-3.25,1.85-5.9,1.35-6.5,5.35-17.25,8.35-22.45,.8-1.45,1.35-2.85,1.15-3.15Z"/>
        <path class="cls-6" d="M139.59,204.82c0-1.6-.05-1.65-2.2-1.65-1.3,0-2.55,.3-3,.75-.4,.4-1.1,.75-1.5,.75-.45,0-.8,.25-.8,.5,0,.3-.45,.5-1,.5-.6,0-1,.35-1,.85,0,.45-.4,1.25-.85,1.8-.65,.7,.15,.45,2.8-.85,2-1.05,3.7-1.8,3.8-1.7,.1,.1-3.7,3.05-8.4,6.55-4.75,3.5-9.4,7.05-10.35,7.85l-1.75,1.45,2,.85c.76,.31,1.56,.59,2.1,.74,.43,.32,1.03,.68,1.8,1.06,.98,.52,1.87,.97,2.36,1.19,.2,.12,.41,.24,.64,.36,.85,.4,1.75,.8,2,.8,.3,.05,3.8-5.15,11.15-16.7,1.45-2.3,2.2-4.05,2.2-5.1Z"/>
        <path class="cls-6" d="M134.54,85.42c0,.08,.02,.17,.03,.25-.24,1.16-.04,3.08,.62,4.4,.07,.13,.13,.23,.2,.34,.89,4.15,2.36,9.67,4.25,16.01,3.04,9.9,10.23,26.27,13.67,31.72l-.22-.02,1.4,2.4c.8,1.3,2.15,3.6,3.05,5.05,.46,.73,.82,1.25,1.14,1.64,.74,1.18,1.65,2.57,2.76,4.21,2.8,4.15,5.85,8.3,6.8,9.25,.07,.07,.14,.14,.21,.22l-.36,.03,2.9,3.35c1.55,1.85,3,3.4,3.15,3.4,.29,0-.52-2.49-1.31-4.41-1.09-3.24-2.28-7.85-2.49-9.69-.2-1.45-.45-3-.6-3.4-.12-.34-.21-.83-.26-1.34,.04-.08,.07-.16,.11-.26l.45-1.15,.35,1.15c.11,.35,.25,.59,.4,.78,.34,1.19,.92,2.92,1.35,4.17,.25,.64,.46,1.11,.65,1.48,.18,.43,.47,1.05,.8,1.67,.32,.61,.63,1.07,.93,1.4,.32,1.49,1.65,3.78,4.17,7.2,4.95,6.7,10.85,11,17.45,12.7,1.75,.45,3.35,.9,3.6,1.05,.6,.35-.6,2.15-1.8,2.7-.6,.3-1.9,.95-2.85,1.5-.95,.5-2.35,.95-3.1,.95-1.45,0-1.6,.35-2.2,5.6-.15,1.55-.6,3.25-.95,3.7-.32,.47-.7,.6-1.02,.53-.3-.16-.39-.71-.28-1.68,.02-.11-.02-.2-.08-.29,0-.21-.08-.36-.22-.36-.2,0-.45-.7-.5-1.6-.02-.37-.1-.75-.22-1.08-.02-.34-.2-.84-.53-1.57-.05-.12-.11-.2-.17-.3-.47-1.61-3.57-6.38-5.53-8.35-.03-.31-.59-.81-1.7-1.59l-1.5-1.05v.43c-1.13-.54-2.22-.82-3.15-.81-.76-.51-2.07-1.04-3.35-1.27-.7-.1-1.3-.25-1.35-.25-.1-.05-.3-.05-.5-.1-.25-.05-.8-.25-1.3-.55-.32-.16-.52-.24-.64-.23-.36-.22-.75-.45-1.16-.67-5.65-2.85-10.05-9.45-10.85-16.25-.08-.71-.2-1.3-.34-1.75,.14-.4,.14-1.13,.14-2.45,0-2.13-.19-3.55-.6-4.43-.05-.48-.62-1.58-1.95-4.07-2.55-4.7-4.45-7.55-5-7.55-1,0-.4,4.6,1.15,8.35,1.4,3.45,1.65,4.7,1.95,10.4,.35,7.25,1.35,10.9,4.05,14.75,3.25,4.75,9.95,8.95,18.4,11.6,3.15,.95,4.2,1.6,6.55,3.9,2.25,2.25,3,3.45,4.1,6.5,1.5,4.15,1.8,7.75,1.15,13.4l-.45,3.65,1.9-.15,1.95-.15,1.95-5.25c1.7-4.55,3.25-10.15,4.1-14.6,.2-1,.95-1.7,2.9-2.75,2.35-1.25,2.6-1.6,2.75-3.25l.15-1.9h2.55c2.2,0,2.45-.1,1.9-.75-.7-.85-.55-.95,3.15-1.75,6.4-1.4,14.25-7.25,18.6-14,3.68-5.62,6.59-12.02,7.45-16.32,.09-.1,.19-.18,.3-.18,.3,0,.5,.35,.5,.75,0,.06,.03,.11,.05,.16-.03,.2-.06,.4-.1,.59-.2,.95-.6,3.35-.9,5.25-.25,1.95-1.05,5.2-1.75,7.25-.31,.97-.58,1.86-.77,2.55-.08,.11-.15,.22-.18,.35-.1,.45-.4,1.25-.6,1.75h0c-.6,1.45,.4,.95,1.9-.9l1.4-1.75h-.14c1.03-1.12,2.37-2.73,4.04-4.85,1.99-2.6,3.25-4.33,3.92-5.44,.63-.74,2.01-2.84,3.36-5.06,.31-.37,.57-.77,.69-1.14,.74-1.25,1.44-2.47,1.95-3.43,.48-.45,1.08-1.25,1.78-2.43,4.1-6.95,6.45-11.85,11.35-23.9,3.78-9.23,8.33-25.27,8.38-29.29,.13-.19,.25-.42,.32-.71,.12-.49,.16-.88,.14-1.2,0-.15-.02-.32-.09-.5-.15-.55-.05-1.1,.25-1.3,.25-.15,.5-.85,.5-1.55,0-.95-.25-1.2-1.25-1.2-.7,0-1.35,.3-1.45,.65-.1,.3-1.15,4-2.3,8.1-2.45,8.85-5.9,18.25-10.4,28.25-3.15,7.1-8.35,16.95-9.25,17.55-.25,.17-.5,1.15-.64,2.31-.08,.08-.15,.14-.21,.14-.4,0-1.3,1.4-3.6,5.45-.06,.11-.12,.23-.18,.36-.2,.1-.39,.23-.52,.39-.45,.65-.65-.3-.9-4.8-.45-7.3-.5-7.4-2.55-7.4s-2.15,.25-3.4,4c-1.65,4.9-7.8,16.85-10.8,20.85-7.15,9.7-16,14.4-23.65,12.65-10.55-2.45-20.6-14.65-27.7-33.6-1.4-3.9-1.45-3.9-3.25-3.9h-1.8l-.35,2.65c-.15,1.4-.3,4.1-.3,5.95,0,3.45-.45,4.4-1.5,3.15-.19-.22-.45-.41-.71-.55-.14-.54-.34-1.06-.59-1.45-.29-.42-.57-.71-.93-.91-.33-.94-1-2.31-1.77-3.54-1.05-1.8-2.55-4.3-3.25-5.65-.7-1.3-1.5-2.75-1.75-3.15-1-1.6-6.5-13.5-8.5-18.5-2.8-7.05-6.3-17.25-7.75-22.75-2.35-8.8-2.35-8.75-3.6-8.75-.95,0-1.1,.2-.9,1.15,.15,.6,.45,2.9,.7,5.1Z"/>
        <path class="cls-6" d="M382.09,193.67c-.55,0-1,.2-1,.4,0,.6-4.85,2.95-6.85,3.35-3.45,.7-8.9-3.2-12.9-9.3-1.3-1.9-3.6-6.4-5.1-9.95-2.75-6.45-2.75-6.5-4.4-6.5s-1.65,0-2,3.05l-.35,3.05-.85-1.45c-6.8-11.2-13.2-29.15-14.55-40.6-.95-8.05-1.5-13.45-1.8-17.65-.35-4.95-1.2-5.85-2.1-2.25-.6,2.35-.9,17.45-.35,18.35,.15,.3,.25,1.15,.2,1.9-.05,.75,0,1.7,.15,2.1,.15,.4,.65,3.1,1.05,6,.57,3.77,1.46,7.66,2.61,11.59-.04,.12-.06,.26-.06,.41,0,.55,.2,1,.4,1,.03,0,.06,.02,.08,.03,2.98,9.66,7.57,19.49,13.31,28.43,.04,.11,.06,.23,.11,.34,.25,.54,.44,.85,.77,1.01,1.78,2.69,3.65,5.3,5.63,7.79,1.25,1.55,2.4,2.85,2.6,2.85,.2,.05,0-.75-.4-1.7-.72-1.74-1.71-5.8-2.23-9.11,.02-.15,.03-.32,.03-.49l.05-1.4,.85,1.4c.22,.34,.4,.6,.57,.8,.13,.25,.27,.51,.43,.8,4.15,7.95,6.8,11,11.35,13.25,2.2,1.1,6.8,1.35,9.05,.5,1.15-.45,4-3.15,6.1-5.7,.9-1.15,.75-2.3-.4-2.3Z"/>
        <path class="cls-6" d="M222.14,188.12c1.8-3.4,3.65-4.75,9.5-6.95,6.4-2.35,11.45-4.85,11.8-5.85,.15-.35,.5-.65,.85-.65,.3,0,1.65-1.05,2.9-2.35,1.43-1.47,2.05-2.34,2.33-3.39,.53-.2,.85-.58,1.22-1.21,.31-.56,.6-1.38,.74-2.14,1.2-.68,1.69-3.15,1.96-9.16,.2-4.85,.5-6.85,1.7-10.35,1.6-4.8,1.95-8.9,.7-8.9-.4,0-.75,.25-.75,.55,0,.35-.4,.9-.85,1.3-.4,.31-.57,.53-.54,.7-.26,.4-.54,.93-.86,1.6-.7,1.4-1.8,3.6-2.45,4.8-.45,.86-.74,1.61-.95,2.64-.23,.31-.31,.91-.24,1.66-.09,.86-.15,1.89-.21,3.2-.13,2.59-.43,4.73-.92,6.63-.26,.77-.6,1.69-.98,2.62-.37,.95-.81,1.84-1.31,2.68-.22,.34-.44,.68-.69,1.02l-.74,1.04c-1.72,2.12-4.01,3.93-7.06,5.61-.53,.29-1.02,.58-1.47,.85-.35,.07-.84,.22-1.58,.45-1.35,.45-2.85,.85-3.4,.9-1.14,.14-2.24,.49-2.82,.83-.62,.15-1.24,.34-1.78,.55-.12-.03-.26,0-.45,.07-.45,.15-.95,.3-1.2,.3-.2,0-.75,.55-1.2,1.25-.25,.37-.41,.63-.49,.81-2.75,2.9-5.33,7.69-6.31,12.09-.1,.42-.19,.76-.28,1.08-.14,.14-.22,.32-.22,.52,0,.8-1.45,1.05-1.55,.25-.05-.25-.1-.8-.15-1.1,0-.17-.11-.35-.28-.49-.13-.95-.34-2.26-.57-3.46l-.65-3.3-2.6-.9c-1.45-.5-2.75-.8-2.85-.7s-.55-.1-1-.5c-.75-.6-.85-.5-.85,.85,0,1.2,.35,1.75,1.75,2.6,2.1,1.3,2.5,2,3,5,.3,1.85,3.15,11,4.8,15.4h0c.35,.9,.8,1.1,2.5,1.1h2.1l-.4-3.35c-.25-1.9-.4-4.4-.4-5.65,0-2.45,1.45-8.55,2.1-9,.2-.15,.7-.85,1.1-1.55Z"/>
        <path class="cls-6" d="M135.99,188.57c.13-.66-1.19-1.19-3.91-1.61-.11-.08-.24-.16-.39-.24-.72-.39-1.68-.36-2.34-.09-.72-.07-1.49-.14-2.32-.2-.24-.07-.51-.13-.84-.16-.58-.06-.94-.07-1.18,0-6.61-.54-22.13-1.98-27.77-2.61-7.35-.8-7-.95-5.25,2.15,.8,1.4,1.75,3.5,2.1,4.6,.35,1.1,.75,2.2,.85,2.4,.15,.25,.85,.3,1.55,.15,.75-.15,8.65-.85,17.6-1.55,20.15-1.55,21.7-1.75,21.9-2.85Z"/>
        <path class="cls-6" d="M305.76,183.86c-.5-.03-1.07,.02-1.55,.13-.84,.07-1.72,.15-2.61,.23-6.2,.55-13.7,1.2-16.75,1.45-2.2,.18-4.91,.42-6.91,.59-.32-.07-.78-.09-1.44-.09-2.06,0-3.42,.24-4.03,.69-2.69,.44-4.37,1.03-4.37,1.56,0,.4,.2,.8,.45,1,.25,.15,4.6,.6,9.65,1,17.75,1.45,22.2,1.8,25.65,2.2,1.95,.25,3.85,.45,4.35,.5,.55,.05,.95-.65,1.4-2.4,.3-1.4,1.25-3.55,2.05-4.85,.85-1.25,1.4-2.4,1.35-2.5-.08-.08-3.09,.14-7.24,.49Z"/>
        <path class="cls-6" d="M306.79,141.77c1.85,.15,3.5,.45,3.7,.6h0c.6,.65,1.1,.25,2.1-1.55,.55-1.05,1.35-2.4,1.8-3,.8-1.1,.75-1.15-.3-1.15-.6,0-2.35,.35-3.9,.8-8,2.2-9.2,3.7-3.4,4.3Z"/>
        <path class="cls-6" d="M92.24,142.27l3.3-.35c6.4-.6,6.55-.65,6.55-2.5,0-1.4-.2-1.65-1.45-1.9-.8-.15-2.1-.45-2.85-.6-1.3-.3-1.25-.2,.55,.95,2.5,1.6,2.1,1.6-3.5,.05-.48-.13-.91-.25-1.32-.36-.09-.05-.17-.09-.28-.14-.91-.4-1.6-.54-2.05-.44-2.86-.62-2.5,.09-.55,2.99l1.6,2.3Z"/>
      </g>
      <g>
        <path class="cls-2" d="M209.49,374.87c-.65,.15-1.45,.3-1.75,.3-.35,0-.65,.25-.65,.5,0,.3,.8,.5,1.75,.5,1.3,0,1.75-.2,1.75-.8s-.3-.75-1.1-.5Z"/>
        <path class="cls-2" d="M199.64,372.67l-1.8,.05,1.25,.7c1.7,.95,3.05,.95,2.7,0-.2-.5-.95-.75-2.15-.75Z"/>
        <path class="cls-2" d="M238.89,319.56c0-.14-.02-.25-.05-.33-.13-.83-.25-1.6-.35-2.3,.06-.07,.11-.15,.11-.25,0-.12-.08-.23-.2-.32-.12-.78-.23-1.47-.33-2.09,0-.03,.03-.06,.03-.09,0-.07-.03-.13-.07-.2-.18-1.14-.33-1.99-.44-2.62,0-.08,.02-.14,.02-.23,0-.66-.15-1.06-.35-1.24-.06-.15-.1-.21-.15-.21-.15,0-1.35,.7-2.65,1.5-1.3,.85-2.55,1.5-2.7,1.5-.2,0-.85,.5-1.5,1.1-1.05,1-1.15,1.5-1.15,6,0,5.05-.35,6-1.35,3.4-.03-.07-.06-.12-.09-.19-.04-.38-.28-1.09-.71-2.36-.28-.77-.57-1.42-.85-1.92,0-.01,0-.02,0-.03,0-.55-.3-1.15-.65-1.3-.18-.06-.53-.01-.98,.1-.02,0-.03,0-.05,.01-.57,.15-1.28,.41-2.02,.74-.46,.06-.79,.21-1.02,.5-.27,.15-.54,.3-.78,.45-.75,.45-5.4,2.65-11.25,5.25-.52,.24-1,.46-1.46,.66-.17,.05-.37,.14-.63,.28-6.01,2.65-6.91,2.06-20.61-4.54-8.7-4.25-8.3-4.3-9.95,.6-.04,.11-.07,.21-.11,.31-.29,.36-.52,.91-.42,1.13-1.18,2.92-1.71,1.78-1.62-3.49l.1-5.1-3.85-2.3c-1.3-.78-2.24-1.32-2.93-1.68,0-.04,0-.07-.02-.12-.15-.25-.65-.5-1.05-.5-.14,0-.27,.04-.37,.09-.2,.02-.29,.15-.32,.38,0,.01,0,.02,0,.03,0,0,0,0,0,.02,0,.04,0,.09,0,.13,0,.35-.2,2.4-.5,4.6-.9,7.35-.9,7.25-.2,7.25,1.25,0,6.85,2.95,7.55,4,.4,.55,1.05,1,1.45,1s1.45,.35,2.35,.8c2.85,1.45,17.25,11.35,21.15,14.55,2.2,1.8,5.1,2.2,6.6,.9,.45-.45,2.25-1.8,4-3.05,1.24-.92,2.15-1.74,2.65-2.36,.7-.17,1.41-.45,1.85-.79,.42-.36,.71-.78,.89-1.2,.87-.25,1.99-.82,3.01-1.55,4.6-3.2,11.7-7.3,12.7-7.3,.55,0,1-.3,1-.65,0-.55,2.65-2.2,7.05-4.35,1.3-.6,1.45-.95,1.3-2.25-.02-.13-.04-.24-.06-.37Z"/>
        <path class="cls-2" d="M167.69,282.62l5.6,2.95c4.4,2.35,5.6,3.2,5.75,4.15,.2,1.5,.85,1.95,3.05,1.95,1.35,0,2.85,.75,6.2,3.05,6.1,4.15,9.45,6.65,10.25,7.6h0c.45,.6,1.45,.85,3,.85,2,0,2.75-.35,6.05-2.85,2.05-1.55,5.75-4.1,8.15-5.75,3.7-2.4,4.8-2.9,6.6-2.9,2.1,0,2.2-.1,2.35-1.55,.15-1.4,.6-1.8,5.15-4.25,2.75-1.5,5.15-2.75,5.3-2.8,.32-.14,.69-5.12,.72-7.96,.03-.09,.05-.19,.08-.34,.18-.88,.08-1.42-.2-1.54-.02-.04-.03-.06-.05-.06-.34,0-1.12,.44-8.67,5.22-.09-.15-.29-.04-.68,.28-.19,.16-.36,.32-.49,.46l-3.31,2.09,.05,3.1c.05,1.7,.05,3.65,0,4.35-.05,1.15-.1,1.15-.5,.25-.16-.43-.5-1.42-.81-2.43,.12-.45-.21-1.24-.74-2.67-.1-.25-.23-.47-.37-.65-.03-.07-.06-.12-.08-.15-.01-.01-.04-.02-.07-.02-.45-.46-.93-.49-.93,.17,0,.02-.01,.04-.02,.05-1.12,.37-3.04,1.17-5.18,2.2-3.2,1.5-6.05,2.75-6.4,2.75-.3,0-.95,.35-1.45,.8s-1.9,.95-3.05,1.05c-2.5,.3-5.6-.85-13.5-4.9-2.65-1.35-5-2.45-5.3-2.45-.25,0-1.05,1.75-1.75,3.9l-1.25,3.85-.05-4.9c-.03-2.47-.1-3.75-.29-4.44,.24,.07,.24,.01,.24-.11,0-.11-.24-.29-.58-.49-.08-.07-.17-.12-.27-.16,0,0-.02,0-.02,0-.28-.15-.59-.3-.9-.43-.68-.38-1.6-.93-2.47-1.46-6.25-4.05-8.3-5.25-8.8-5.25-.26,0-.4,1.33-.41,3.57,0,.02,0,.05,0,.07,0,.35,0,.71,0,1.1l.05,4.7Z"/>
        <path class="cls-2" d="M246.95,355.81c0-.57-.08-.87-.18-.77-.59-2.39-1.48-5.25-2.18-7.05,.05-.58-.13-1.36-.49-1.58-.08-.05-.19-.07-.31-.07-.03-.03-.06-.07-.09-.08-.19-.06-.65,.16-1.17,.52-.33,.2-.64,.44-.89,.7-.01,.01-.03,.02-.04,.04l-1.6,1.45-.16,3.59c-.2,.8-.27,2.72-.19,4.38-.19,5.14-.11,5.23,.9,5.23,.65,0,1.05-.3,1.05-.85,0-.6,.95-1.3,2.9-2.1l2.95-1.25-.4-1.75c-.03-.13-.06-.27-.09-.41Z"/>
        <path class="cls-2" d="M233.49,354.82l-.64-1.12s0-.02,0-.03c0,0-.02-.01-.03-.02l-.27-.48-.98,.52c-.51,.19-1.09,.49-1.58,.84l-2.05,1.09c-2.55,1.3-6.5,3.35-8.85,4.5-2.35,1.15-5.1,2.55-6.1,3.05-1,.55-2.1,1-2.35,1-.04,0-.1,.01-.18,.04-.24-.05-.84,.12-1.37,.46-.11,.07-.18,.12-.25,.18-.68,.3-1.48,.67-2.3,1.07-2,.95-3.95,1.75-4.4,1.75-.42,0-1.43-.31-2.87-.87-.36-.27-.93-.52-1.43-.57-3.84-1.58-9.74-4.35-16.16-7.61-.81-.41-1.55-.79-2.25-1.15,.19-.33,.14-.38-.21-.11-9.1-4.66-8.44-4.22-11.35,1.5-2.05,4.05-2,4.15,2.15,6.35,1.55,.8,3.4,1.85,4.15,2.35,1.8,1.15,7.9,5,9.15,5.75,1.8,1.1,9,6.1,10,6.95,.55,.45,2.25,1.85,3.75,3.1h0c4,3.25,5.55,3.2,10.05-.5,2.95-2.4,3.45-3.05,3.45-4.4,0-1.55,.05-1.55,2.15-1.4,1.5,.15,2.4-.1,3.1-.75,.55-.5,1.8-1.35,2.75-1.85s2.2-1.35,2.75-1.8c.55-.5,2.15-1.5,3.5-2.3,1.4-.8,3.25-1.9,4.1-2.5,.9-.6,3.3-1.95,5.3-3l3.7-1.9-1.7-3.25c-.95-1.8-2.2-4.05-2.75-4.9Zm-34.4,18.6l-1.25-.7,1.8-.05c1.2,0,1.95,.25,2.15,.75,.35,.95-1,.95-2.7,0Zm9.75,2.75c-.95,0-1.75-.2-1.75-.5,0-.25,.3-.5,.65-.5,.3,0,1.1-.15,1.75-.3,.8-.25,1.1-.1,1.1,.5s-.45,.8-1.75,.8Z"/>
        <path class="cls-2" d="M305.34,242.17c-.13-.21-1.3-.86-2.84-1.64-.5-.29-1.24-.66-2.11-1.06-.1-.04-.19-.08-.29-.12-2.82-1.34-5.76-2.61-5.91-2.43-.57,.57-2.29,6.22-2.79,8.72-.52,.68-.92,1.76-1.06,2.8-.18,.1-.31,.39-.34,.84-.1,1.9-.8-5.1-.85-8.95-.05-5.1-1.05-4.85-2.7,.75-1.58,5.26-2.5,9.13-3.06,13.14-.11-.8-.15-.43-.19,1.26,0,.15,0,.27-.01,.41-.17,1.57-.3,3.18-.39,4.94-.21,4.03-.29,5.68-.1,6.36,0,.92,.02,1.74,.04,2.42-.12,.42-.08,1.14,.06,2.47,.2,1.6,.45,3.45,.6,4.25h0c.45,2.3,1.9,1.7,3.5-1.5,.8-1.6,1.6-3,1.75-3.15,.58-.54,3.48-4.91,4.8-7.14,.56-.2,.91-.65,1.35-1.56,.05-.12,.11-.23,.16-.35,1.2-.41,3.77-3.27,4.1-4.55,.71-.19,1.18-.67,1.4-1.44,.97-.22,1.57-1.47,2.64-5.36,.34-1.26,.79-2.9,1.19-4.29l.31,.34v-1.42c.07-.24,.14-.47,.2-.68,.45-1.45,.7-2.85,.55-3.05Z"/>
        <path class="cls-2" d="M163.93,355.4c-.02-.41-.05-.83-.09-1.28-.14-1.66-.24-2.7-.38-3.36,.54-.78,.02-2.47-1.37-3.49-1.33-1.02-1.79-1.27-1.94-.83-.29,.06-.52,.23-.72,.57-.34-.47-.36-.38-.14,.25-.17,.37-.33,.87-.5,1.55-.18,.79-.33,1.48-.38,1.91-.28,.68-.48,1.34-.56,1.81-.25,.6-.54,1.48-.76,2.34-.65,2.35-.6,2.45,.55,3.35,.65,.5,1.95,1.2,2.85,1.55,.85,.35,1.6,.9,1.6,1.25s.3,.65,.7,.65c.89,0,1.29-1.72,1.2-5.02,.06-.16,.1-.33,.1-.53,0-.49-.03-.72-.16-.72Z"/>
        <path class="cls-2" d="M120.94,264.52c-.07-3.82-.23-7.79-.45-10.24,.06-.11,.11-.23,.11-.36,0-.21-.07-.36-.19-.43-.07-.58-.14-1.04-.21-1.32-.3-.95-.85-3.45-1.35-5.5-.02-.09-.04-.18-.06-.27,0-.1-.01-.2-.04-.33-.57-2.46-.88-3.69-1.17-4.24-.78-2.59-1.62-4.92-2.18-5.91-.45-.8-.6,.75-.8,7-.15,4.4-.4,7.65-.6,7.25-.5-1.2-1.85-5.45-3-9.4-1.1-3.85-1.9-4.7-3.3-3.5-.45,.4-2.55,1.45-4.6,2.35-.64,.28-1.28,.57-1.89,.86-.29,.08-.84,.33-1.51,.69-.17,.09-.33,.19-.48,.29-.38,.2-.67,.36-.82,.46-.31,.24-.51,.41-.61,.59-.12,.12-.19,.21-.19,.26,0,.13,.07,.2,.18,.22,.07,.21,.22,.46,.47,.83,.75,1.15,2.56,6.85,3.35,10.29,0,0,0,0,0,0,0,.24,.06,.44,.14,.61,.04,.21,.08,.4,.11,.59,.15,1.15,.55,1.85,1,1.85,.4,0,.75,.25,.75,.5,0,.21,.28,.37,.69,.45,.54,.89,1.08,1.37,1.71,1.45,.07,0,.12,.03,.18,.05,.12,.39,.38,.74,.67,.85,.08,.04,.16,.09,.23,.14,0,.04,.02,.07,.02,.11,0,.49,.24,.8,.65,.9,.35,.61,1.28,1.84,2.35,3.15,1.4,1.7,3.7,5,5.1,7.35,1.35,2.35,2.75,4.6,3.05,4.95,1.15,1.4,2.1,.4,2.5-2.65,.07-.51,.12-1.26,.16-2.18,.06-.35,.12-1.01,.14-1.92,.02-1.1,0-1.83-.08-2.31,0-.74,0-1.51-.02-2.29,.08-.16,.14-.34,.14-.54,0-.27-.06-.49-.16-.65Z"/>
      </g>
      <g id="Face">
        <path class="cls-3" d="M341.04,165.77c.85,1.8,1.55,3.4,1.55,3.55,0,.4,5.45,10.2,6.65,12l1.2,1.75,.65-4.95c.35-2.75,.7-4.9,.85-4.8,.1,.15,1.4,3.05,2.9,6.55,4.25,9.95,8.8,15.95,14,18.35h0c3.65,1.7,9.45,.8,12.6-1.9,2.9-2.45,3.75-8.55,2-14.4-1-3.43-4.15-8.12-7.35-11.14-.02-.02-.03-.04-.05-.06-.78-.76-1.35-1.24-1.88-1.56-2.51-1.76-8.98-4.99-10.07-4.99-.45,0-1.25-.45-1.75-1-.4-.44-.99-.88-1.47-1.11-.15-.35-.4-.66-.73-.94-.21-.18-.4-.37-.56-.55-.02-.46-.16-.91-.34-1-.7-.3-3.15-4.4-2.65-4.4,.25,0,0-.8-.55-1.75-.29-.46-.59-.89-.83-1.21-.52-1.06-1.01-1.57-1.3-1.48-.56-1.05-1.27-2.83-1.81-4.66-.32-1.05-.66-1.75-1-2.08-.07-.49-.19-.95-.35-1.32-.7-1.7-1.65-2-1.65-.5,0,.55-.2,1-.5,1-.19,0-.38,.43-.46,1.05-.05,.1-.09,.22-.09,.35-.05,1.85,.1,7.45,.35,9.25,.1,1,.1,1.85-.05,1.85-.1,0-.7-.9-1.25-2-.32-.62-.6-1.08-.85-1.4-.39-.84-.95-1.78-1.55-2.45-.45-.5-.9-1.25-1-1.65-.05-.27-.12-.53-.2-.77,0-.03,.02-.05,0-.08-.02-.05-.08-.17-.15-.33-.03-.08-.07-.15-.11-.23-.39-.81-1.15-2.36-1.99-4.09-4.5-9.2-8-22.7-8.5-32.65-.15-3.5-.45-6.2-.65-6-.2,.2-.65,2.5-1,5.1-.8,6.05-.25,15.15,1.75,30.3,.9,6.35,4.85,19.25,8.2,26.35Z"/>
        <path class="cls-3" d="M74.19,269.22c-1.85,.7-8.85,8.05-13.2,13.9-4.7,6.3-4.95,6.75-4.1,7.4,.55,.35,1.35,1,1.8,1.4,.5,.4,2.6,2.1,4.7,3.75h0c3.55,2.85,3.85,3,4.45,2.1,.95-1.3,4.15-10.65,5.3-15.35,1.15-4.85,1.85-13.5,1.05-13.2Z"/>
        <path class="cls-3" d="M84.54,185.67c-.61,0-2.11,.64-3.81,1.52-.44,.04-.71,.19-.81,.43-1.99,1.09-4.11,2.43-5.33,3.44-1.5,1.3-3.3,2.75-4,3.2-1.4,.85-13.4,12.65-15.65,15.4-.75,.9-1.6,2.05-1.85,2.55-.3,.5-.9,1-1.35,1.15-.5,.15-1.35,1.2-1.85,2.3-.55,1.1-1.15,2-1.35,2-.7,0-.8-1.25-.2-2.8,.35-.85,1.15-3.55,1.7-6,.6-2.45,1.2-4.85,1.35-5.3,.25-.75-.05-.9-1.8-.9-1.15,0-2.5,.2-3,.5-.33,.18-1.01,.86-1.91,1.89-.11,.09-.23,.24-.37,.43-3.53,4.15-9.93,12.82-13.38,18.33-2.38,3.78-3.65,6.04-4.12,7.44-.79,.25-1.23,1.02-1.23,2.21,0,.79,.25,.84,2.34,.42l2.06-.12c1.85-.1,4.1-.4,5.05-.65,.95-.2,1.85-.35,1.95-.25,.3,.3-3.85,3.05-7.15,4.65-3.57,1.83-9.77,3.87-13.4,4.47-.07-.13-.16-.18-.25-.12-.25,.15-1.25,.3-2.3,.4q-1.85,.1-1.7,2.1c.1,1.45,.4,2.1,1.05,2.2,.5,.1,.85-.15,.85-.6,0-.87,.31-.98,1.87-.37,.37,.28,.91,.49,1.4,.54,.6,.2,1.26,.37,1.8,.46,.24,.11,.48,.23,.68,.37,1.15,.75,1.25,1.15,1.25,4.2,0,1.46,.19,3.25,.52,5.13,0,.74,.08,1.73,.28,3.02,.17,1.04,.38,1.52,.78,1.72,.56,2.03,1.24,3.94,1.97,5.43,1.55,3.26,5.49,7.82,8.22,9.82,.17,.23,.43,.4,.85,.55,.28,.16,.55,.3,.78,.37,.94,.28,2.63,.79,3.87,1.14,.2,.08,.41,.15,.63,.21h0c1,.25,1.9,.5,1.95,.55,.02,.02,.02-.03,0-.1,.33,.06,.59,.1,.74,.1,.75,.05,.8-.1,.15-1.3-5.9-11.5-8.3-20.7-7.3-28.35,.3-2.35,.35-2.45,1.15-1.65,2.4,2.4,4.6-.25,9.45-11.4,3.3-7.65,6.6-14.25,8.85-17.75,2.15-3.35,5.05-7,5.5-7,.2,0,.3,1.3,.2,2.9-.1,1.65-.1,3.6,0,4.4,.15,1.4,.25,1.3,2.5-2.05,2.1-3.15,10.75-12.3,12.65-13.35,.18-.11,.34-.28,.47-.46,.33-.28,.75-.68,1.38-1.29,.85-.83,1.41-1.52,1.68-2.04,1.86-1.83,4.31-4.97,5.17-6.81,1.05-2.35,1.75-7.3,1-7.3Z"/>
        <path class="cls-3" d="M137.19,322.27c-1.85,1.75-7.95,5.9-8.7,5.9-.2,0-.4-.35-.4-.75s.2-.75,.5-.75c.9,0,3-3.8,4-7.3,2.42-8.49,4.14-20.66,4.29-29.25,.11-.22,.14-1.31,0-2.55,0-.03,0-.06,0-.09-.03-1.32-.11-2.53-.24-3.56-.6-4.35-1.4-8.3-1.55-7.5-.05,.3-.15,.85-.3,1.25-.1,.4-.6,2.55-1.1,4.75-.02,.1-.05,.2-.07,.3-.16,.33-.31,.73-.43,1.2-.24,.87-.4,1.76-.5,2.57-.09,.33-.16,.57-.2,.68-.2,.4-1.05,3.8-1.9,7.5-2.7,11.5-8.9,30-13.25,39.75l-1.35,3,1.15,.75c.65,.4,2.5,1.9,4.15,3.25,1.65,1.4,4.35,3.55,6,4.85h0c1.7,1.3,3.15,2.35,3.3,2.35,1.2,.1,9.75-26.85,8.8-27.8-.15-.2-1.15,.45-2.2,1.45Z"/>
        <path class="cls-3" d="M317.69,219.97c.15-1.5-.2-2.25-2.25-4.9-4.6-5.9-7.1-13.3-6.75-20.15l.15-3.5-3.25-.35c-1.8-.15-6.5-.55-10.5-.9-11.1-.9-23.4-2-27-2.4l-3.25-.35,2.75-.85c15.78-4.7,18.31-5.42,26.02-7,.26-.01,.55-.04,.88-.1,1.32-.25,2.44-.5,3.32-.74,1.55-.31,2.7-.54,3.64-.73,.09,0,.17,0,.28-.03,.49-.08,1.93-.37,3.49-.66,.61-.1,1.28-.21,2.11-.34,2.15-.4,4.05-.95,4.15-1.25,.02-.05,.06-.09,.11-.14,.65-.09,1.52-.25,2.46-.45,.17-.04,.34-.07,.52-.11,.22-.05,.44-.1,.66-.15l3.35-.85v-3.85h-.94c-.21-.25-.5-.47-.91-.7-2.05-1.05-3.45-2.75-5.15-6.15-2.95-6.1-3.1-13.15-.45-19.55,.6-1.45,1-2.75,.85-2.9-.15-.1-2.1-.45-4.4-.7s-4.25-.55-4.35-.7c-.15-.1,.3-.5,.95-.85,.32-.16,1.44-.85,2.93-1.79,.15-.02,.27-.09,.35-.22,1.2-.76,2.6-1.66,4.02-2.58,.31-.21,.61-.4,.9-.59,3.21-2.11,9.62-6.53,9.5-6.61-.05-.1-1.7,.3-3.6,.8-.63,.18-1.23,.33-1.82,.47-.53,.05-1.31,.18-2.48,.38-1.92,.34-3.83,.55-5.71,.64-.1,0-.19,0-.29,0-.33,0-.6,.02-.84,.04-6.22,.15-11.98-1.06-16.06-3.49-3.15-1.85-5.7-3.65-5.9-4.1-.1-.2-1.1-1.45-2.15-2.75-3.9-4.6-6.45-11.7-6.45-17.75,0-2.55-.1-2.95-.85-2.8-.65,.1-.95,.75-1.05,2.15-.1,1.1-.35,2.1-.55,2.25-.25,.15-1.6,4.95-3,10.7l-2.65,10.5,.65,8.8c.5,7,.5,10.25,0,15.55-.5,5.75-3,19.9-3.85,22.2-.25,.65,.45,.75,4.75,.75,2.8,0,5.05,.2,5.05,.4,0,.25-1.2,1.55-2.65,2.9-4.35,3.95-11.1,11.55-15.6,17.45-8.95,11.75-13.5,22-14.75,33.05-.75,7.05-.35,9.25,2.2,11.65,1.1,1.05,4.65,4.35,7.8,7.3,3.15,2.95,6.15,5.95,6.75,6.75,.55,.75,1.8,2,2.75,2.8,3.2,2.6,15.25,13.4,15.4,13.8h0c.1,.25,.35,.4,.55,.4s-.25-1.3-1.05-2.85c-9.05-18.55-8.65-30.95,1.25-37.95l1.45-1-2.95-4.5c-5.9-8.9-10.65-16.4-10.65-16.85,0-.15,3.8,1.65,8.45,4,1.03,.52,1.93,.98,2.73,1.38,.12,.11,.39,.24,.82,.42,.03,.01,.08,.03,.11,.04,2.38,1.18,3.64,1.75,4.39,1.93,1.64,.68,4.4,1.78,6.74,2.63,2.75,1.05,5.8,2.15,6.75,2.55h0c1.1,.4,1.7,.6,2.05,.6,2.34,.7,4.56,1.26,5.22,1.34,.22,.17,.61,.24,1.28,.26,.11,.05,.2,.1,.25,.16,.2,.2,1.15,.35,2.15,.35,.03,0,.06,0,.09,0,.18,.25,.94,.59,1.86,.85,2.4,.7,2.65,.7,4,.35,.02,0,.04-.02,.07-.03,1.02,.2,2.07,.33,2.78,.33,2.05,0,2.15-.05,2.35-1.7Z"/>
        <path class="cls-3" d="M328.26,291.78c-.06-.12-.16-.26-.32-.43-2.67-3.67-5.17-7.61-6.45-10.32-2-4.2-2.3-3.2-.35,1.25,2.9,6.7,5.4,11.25,8.3,15.35,1.55,2.25,3,4.05,3.15,4.05s.75-.4,1.4-.9l1.1-.85-2.05-2.25c-1.49-1.62-3.16-3.69-4.78-5.89Z"/>
        <path class="cls-3" d="M347.74,288.67c-.7,0-1.6-.75-2.6-2.1-.73-1.09-1.82-2.46-2.54-3.27-.26-.53-.62-1-1.04-1.29-.32-.47-.56-.93-.62-1.24-.2-1.3-10.7-11.3-11.1-10.55-.2,.3-.2,2.7-.05,5.3,.4,5,2.2,12.2,4.8,19.05,.9,2.25,1.7,4.1,1.85,4.1,.02,0,.08-.04,.17-.09,.28,.1,.58-.15,1.03-.71,.03-.04,.05-.07,.08-.11,2.41-1.83,7.58-5.96,9.57-7.69,1.45-1.3,1.45-1.35,.45-1.4Z"/>
        <path class="cls-3" d="M244.14,188.57c.45-.15,1.9-1.35,3.25-2.55,1.35-1.25,3.1-2.85,3.95-3.55l1.45-1.25-3.6,.3c-2,.15-3.6,.1-3.6-.1,0-.25,.45-.9,.95-1.45,.76-.82,2.01-2.68,3.33-4.83,.03,.01,.06,.03,.07,.03,.1,0,.82-1.33,1.27-2.29,1.36-2.36,2.62-4.76,3.28-6.36,1.17-2.82,2.13-5.86,2.85-8.99,.35-.42,.52-1.18,.41-1.91,.65-3.3,1.04-6.65,1.14-9.9,.03-.08,.05-.16,.05-.24s-.02-.16-.05-.23c.04-2.1-.04-4.16-.25-6.12-.3-2.75-.55-5.35-.55-5.85,0-.45-.7,.3-1.5,1.75-.85,1.45-1.5,3.2-1.5,3.95,0,.7-.65,3.25-1.45,5.6-1.2,3.55-1.5,5.45-1.7,10.5-.25,5.75-.4,6.45-1.9,9.5-1.65,3.35-6.05,8.6-7.2,8.6-.35,0-.75,.3-.9,.65-.35,1-5.4,3.5-11.8,5.85-5.85,2.2-7.7,3.55-9.5,6.95-.4,.7-.9,1.4-1.1,1.55-1.55,1.05-2.75,11.75-1.8,16.2,.3,1.45,.25,1.85-.2,1.7-.8-.25-5.25-13.25-5.75-16.65-.25-1.95-.65-2.75-1.85-3.75-.85-.7-2.8-2.55-4.35-4.1-1.65-1.7-3.3-2.9-3.9-2.9-.65,0-1.65,.85-2.7,2.3-1,1.4-2.55,2.8-4,3.5-1.8,.9-2.45,1.55-2.65,2.6-.8,4.4-2.4,10-4,14.35-1.8,4.9-3.25,7.55-2.4,4.5,.2-.8,.35-3.8,.35-6.6-.1-7.15-1.75-11.75-5.65-15.7-1.55-1.55-3.45-2.95-4.3-3.15-.8-.2-3.65-1.15-6.25-2.15-12.85-4.9-18.7-12.9-18.45-25.15,.1-4.15-.1-5.2-1.25-8.25-.75-1.9-1.65-4.4-1.9-5.5-.75-2.85-2.1-6.25-2.45-6.25-.76,0-1.08,7.34-.91,13.78,0,.44,0,.89,.01,1.37l.05,4.6,.2-.92c.1,1.21,.24,2.26,.4,3.02,.44,2.08,1.02,4.2,1.71,6.3,.1,.35,.21,.68,.34,.99,.39,1.13,.81,2.26,1.26,3.38,.09,.3,.2,.65,.29,.98,.24,.71,.36,.95,.46,.81,1.73,3.95,3.79,7.64,5.99,10.64,1.25,1.7,2.25,3.2,2.25,3.35,0,.2-1.5,.2-3.3,.05-.87-.1-1.63-.13-2.19-.12-.16-.06-.32-.04-.46,.03-.31,.04-.48,.1-.45,.19,.01,.02,.06,.08,.13,.15-.05,.14-.06,.3,.02,.45,.2,.25,.5,.45,.8,.45,.04,0,.06-.01,.1-.02,.97,.9,2.52,2.29,4.27,3.79,.07,.08,.13,.14,.17,.15,.32,.27,.62,.54,.93,.81,.02,.17,.08,.22,.17,.15,4.92,4.34,8.57,8.61,11.76,13.66,3.85,6.15,7.45,15.3,9.05,22.8,1.15,5.5,1.9,7.05,4.15,8.75,2.65,2.05,7.55,4.5,10.45,5.2h0c5.9,1.4,17.9,.45,20.9-1.7,.7-.45,1.95-1.2,2.75-1.6,4.55-2.15,5.65-3.85,7.55-11.55,2.1-8.8,5.95-17.65,10.8-24.9,2.75-4.05,7.15-9.1,8.45-9.65Zm-51.75,38.75c-.1,.35-.25,.35-.25,.1-.1-.85-6.4-7.25-7.2-7.25-1.3,0-2.15,1.45-1.45,2.55,.9,1.4,.75,1.55-.85,.75-4.4-2.3-3.9-8.5,.7-8.5,1.6,0,2.2,.3,3.55,1.9,.9,1.05,2.55,3.7,3.7,5.85h0c1.15,2.2,1.95,4.25,1.8,4.6Zm11.46-13.91c-.83-.21-2.59-.21-3.7,0-.55,0-1.09,0-1.6-.01-.06-.16-.17-.17-.31-.03,0,0,0,.02-.01,.03-3.02-.04-5.14-.12-5.14-.23,0-.15,1.8-1.2,4-2.4,1.81-.97,3.3-1.62,4.65-2.02,.86,0,1.76,.39,3.4,1.22,.95,.48,1.6,.75,2.09,.87,.31,.3,.75,.6,1.36,.93,1.1,.65,2,1.25,2,1.4,0,.13-2.9,.22-6.74,.24Zm-2.01-10.24c-4.8,0-8.75-.1-8.75-.2,0-.25,1.29-1.03,2.89-1.85,.34,0,.63-.14,.85-.43,2.09-1.03,4.39-2.01,5-2.01,1.2,0,8.75,3.7,8.75,4.3,0,.1-3.95,.2-8.75,.2Zm19.9,19.75c-2.1,1.4-2.5,1.35-1.65-.25,.5-.9,.45-1.25-.15-1.85-.22-.22-.45-.37-.7-.45,.05-.14-.05-.2-.3-.2-.3,0-.76,.23-1.2,.53-.83,.5-1.85,1.51-3.2,3.12-3.7,4.35-3.6,4.25-3.2,2.85,.6-2,3.7-7.6,5.3-9.6,.24-.31,.47-.61,.67-.9,.15-.1,.29-.19,.43-.3,.72-.58,1.62-1.06,2.2-1.16,.98,.23,2.12,.64,2.85,1.11,2.35,1.55,1.85,5.1-1.05,7.1Z"/>
        <path class="cls-3" d="M286.59,334.72c0-.45-.2-1.05-.45-1.3-.7-.85-5.35-13.1-7.8-20.75-1.3-4-2.5-7.7-2.75-8.25-.04-.11-.1-.31-.17-.56-.1-.67-.23-1.38-.38-1.99-.16-.58-.3-1.01-.46-1.34-.87-3.65-1.98-8.74-2.24-10.51-.11-.75-.35-1.33-.73-1.77-.07-1.76-2.52-10.08-3.07-10.08-.25,0-.45,.3-.5,.65,0,.21-.05,.59-.11,.94-.15,.08-.21,.21-.09,.36,0,0,0,.01,0,.02,0,0,0,.02,0,.03-.04,.18-.08,.4-.13,.63-.02,.02-.04,.05-.07,.07-.29,.21-.37,.88-.21,1.72-.2,1.43-.41,3.22-.59,5.23-.03,.32-.05,.62-.07,.9-.13,.83-.09,2.04,.07,3.8,.15,1.9,.35,4.65,.5,6.15,.85,10.75,3.95,23.35,6.5,26.7,2.3,3,1.5,3.05-2.85,.25-1.75-1.15-3.9-2.75-4.75-3.6-.9-.85-1.75-1.4-1.9-1.25-.6,.6,2.9,13.1,6.1,21.8,1.25,3.35,2.35,6.1,2.45,6.1,.35,0,3.55-2.4,9.6-7.15,4.95-3.9,5.5-4.5,4.85-5.2-.4-.4-.75-1.1-.75-1.6Z"/>
        <path class="cls-3" d="M389.73,242.27c-.77-.09-2.11-.24-3.43-.39-.26-.03-.5-.05-.72-.07-.84-.38-2.16-.83-3.83-1.28-4.55-1.3-11.55-4.65-14.2-6.8l-1.2-1,2,.45c1.1,.2,4.1,.5,6.65,.7,4.35,.25,4.6,.25,4.6-.7,0-.6-.35-1-.85-1-.6-.05-2.55-2.7-5.75-7.9-2.2-3.55-4.46-6.9-6.67-9.95-.08-.22-.32-.57-.73-1.15-.44-.64-.97-1.27-1.29-1.58-1.17-1.53-2.31-2.95-3.42-4.27-.06-.13-.16-.29-.33-.51-1.35-1.75-3.9-4.15-4.45-4.15-.2,0-.32,.03-.4,.08-.57-.13-1.27-.22-2.25-.33-1.31-.14-2.48-.2-3.13-.18-.13-.13-.3-.15-.47,.03,0,0,0,.03-.01,.03,0,0-.03,0-.04,.02,0,0,0,.05,0,.07-.07,.23-.02,.66,.15,1.08,.19,.49,.29,.7,.37,.67,.28,.79,.65,1.77,1.08,2.83,1,2.45,2,5,2.25,5.7,.25,.75-1.1-.45-3.4-3-1.55-1.71-3.04-3.3-4.48-4.8-.68-1.02-1.78-2.08-2.97-2.99-2.16-2.12-4.24-4-6.26-5.69-.25-.33-.66-.76-1.18-1.17-.53-.41-.96-.68-1.28-.82-1.74-1.34-3.46-2.55-5.19-3.65,.05-.11-.06-.23-.37-.43-.25-.18-.62-.33-.96-.4-.74-.45-1.48-.88-2.24-1.3-6.9-3.85-7.4-3.7-6,1.5,1.4,5.4,3.45,8.05,12.5,16.2,4.2,3.8,7.15,7,8.9,9.5,1.4,2.1,2.75,4.05,3.05,4.3,.3,.3,.4-1.15,.2-4.15l-.25-4.65,1.2,1.1c3.45,3.25,8.25,11.75,14.45,25.8,3.4,7.6,5.25,10.65,6.55,10.65,.4,0,1.25-.35,1.9-.75,1.15-.8,1.2-.75,1.5,1.5,1,6.6-2.65,20.8-6.95,27.15-.7,1-1.25,2-1.25,2.2h0c0,.25,.4,.4,.85,.4,.06,0,.14,0,.22-.02,.03,0,.05,.02,.08,.02,1.35,0,8.3-2.46,8.8-3.13,1.68-.73,4.89-4.55,7-7.96,.34-.11,.48-.37,.53-.89,.49-.86,.9-1.67,1.16-2.37,.49-.63,.98-2.06,1.22-3.5,.85-1.08,1.22-3.27,1.59-9.11,.16-2.32,.28-3.73,.46-4.66,.39-.27,1.02-.57,1.74-.78,2.53-.81,4.63-1.79,5.66-2.61,.89-.04,1.19-.3,1.19-.94,0-.83-1.04-1.15-1.87-.96Z"/>
        <path class="cls-3" d="M156.24,206.92c-4.9-9.85-12.3-19.75-22.6-30.2l-5.5-5.55h4.65c5.4,0,6.2-.45,5.25-2.8-.3-.8-.65-1.9-.7-2.45-.1-.55-.65-3.5-1.2-6.55-1.6-8.5-2.15-17.6-1.55-26.05,.25-4,.6-7.45,.75-7.7,.15-.2-.75-4.55-2-9.55-3.35-13.4-3.2-13-4.05-12.7-.35,.15-.65,.1-.65-.1,.2-1.15-.15-2.1-.75-2.1-.45,0-.75,.95-.95,2.95-.4,3.9-2.3,8.8-5.2,13.5-.46,.74-.89,1.39-1.28,1.96-1.03,.82-2.26,2.05-3.16,3.14-.42-.02-.69-.46-.81-1.35l-.15-1.25-1.7,1.75-1.75,1.8h2.95l-1.75,1.15c-3,2-7.05,3.45-10.05,3.6-1.55,.05-3.15,.3-3.5,.55-.8,.45-5.95,.25-12.05-.55-.54-.08-.96-.13-1.32-.16-.55-.27-1.33-.54-2.33-.79-4.35-1.1-4.4-1.05-1.25,.9,1.5,.95,2.8,1.75,2.85,1.75,.03,.03,.15,0,.33-.07,.85,.7,2.11,1.63,3.66,2.7,.79,.84,1.12,1.05,.95,.65,2.16,1.47,4.74,3.13,7.42,4.76l2,1.2-1.5,.35c-.8,.2-3,.5-4.85,.7-2.5,.25-3.3,.5-2.95,.9,.25,.35,1,1.95,1.6,3.6,1.25,3.22,1.59,8.76,.97,13.1-.07,.28-.14,.56-.22,.8-.4,1.38-.56,1.96-.43,2.18-.79,2.39-1.5,3.5-4.12,6.07-1.75,1.7-3.4,3.1-3.7,3.1-.25,0-.5,.85-.5,1.95,0,1.85,.1,1.95,1.9,2.25,.04,0,.09,.01,.13,.02,.32,.25,.78,.47,1.37,.63,1.01,.28,2.28,.47,3.4,.54,.65,.62,3.24,1.36,6.45,1.81,7.07,.98,16.58,3.13,26.28,5.85,.52,.16,1.06,.31,1.58,.45,3.58,1.02,7.16,2.12,10.65,3.26l2,.65-1.6,.05c-.9,.05-3.15,.3-5,.55-1.9,.3-10.8,1.1-19.9,1.8-9.05,.7-16.7,1.3-17,1.4-.25,.05-.4,1.7-.35,3.85,.26,5.64-1.43,11.69-4.7,17.04-.1-.02-.18,.09-.19,.32-.5,.8-1.03,1.58-1.61,2.34-1.75,2.35-2.3,3.65-2.6,5.7l-.35,2.7,1.6-.35c.9-.15,1.8-.6,2-.9,.1-.18,.54-.35,1.13-.48,1.31,0,2.83-.14,3.95-.38,2.45-.3,4.57-.94,4.76-1.49,.01-.04,.05-.07,.08-.1,.17-.02,.34-.03,.52-.05,1.8-.15,3.95-.65,4.75-1.05,.09-.05,.21-.1,.34-.16,3.46-.83,10.33-3.34,17.01-6.2,.65-.05,2.87-1.08,4.39-1.94,2.14-.98,4.17-1.96,5.95-2.9,4.15-2.15,6.1-2.95,5.85-2.4-.35,1-2.15,3.85-8.65,13.85l-4.65,7.05,1.15,.75c3.65,2.5,6.95,7.55,7.75,11.95,1.15,6.4-1.2,16.25-6.2,26.25-.65,1.3-1.2,2.5-1.2,2.7,0,.2,1.4-1,3.15-2.6,1.7-1.65,5.4-4.95,8.2-7.4,2.85-2.45,5.25-4.85,5.4-5.35,.15-.45,1.8-2.1,3.65-3.6,1.85-1.5,5.6-4.9,8.35-7.55,2.7-2.65,5.15-4.8,5.35-4.8,1.4,0,2.1-5.5,1.4-11.25-.8-6.75-2.35-11.9-5.35-18Z"/>
        <path class="cls-3" d="M82.34,281.17c-1.7,3.35-7.65,11.65-11.05,15.4l-1.95,2.17s-.04,.04-.05,.06l-.65,.73,.3,.3h0c.07,.12,.13,.17,.2,.2l.55,.55c1.35,1.35,1.6,1.15,5.1-3.85,2.55-3.65,4.3-6.8,7.8-14.2,1.95-3.95,1.7-5.15-.25-1.35Z"/>
        <path class="cls-3" d="M134.09,80.37c.25,.25,.3,.75,.15,1.15-.15,.4-.05,.9,.3,1.1,.35,.2,.65,.9,.7,1.45,.05,.6,.2,1.1,.35,1.1,.25,0,1.35,4.25,1.65,6.5,.1,.4,.25,1,.4,1.25,.2,.3,1.05,2.75,1.95,5.5,1.95,6.05,7.75,20.85,8.7,22.4,.4,.6,1.55,3,2.6,5.35,1.05,2.35,2.3,4.8,2.75,5.5,.45,.7,1.85,3.15,3.2,5.5,2.95,5.25,8.75,14,9.3,14,.25,0,.4-2.2,.35-4.85-.05-5.45,.5-12.15,1.05-12.15,.15,0,.95,1.75,1.75,3.9,2.2,5.85,6.45,14.4,9.35,18.85,4.7,7.2,11.45,12.85,17.4,14.55h0c1.45,.4,4.05,.6,6.95,.5,4.1-.15,5-.35,8.25-1.95,4.5-2.25,8.65-5.95,12.4-11,3.05-4.05,9.2-16,10.85-21,2.05-6.2,2.75-4.7,2.8,6.05,0,4.15,.15,7.6,.3,7.6,.35,0,6.05-8.7,7.55-11.5,.65-1.25,1.3-2.35,1.45-2.5,.15-.15,1.45-2.3,2.85-4.8,5.75-10.2,12.7-27.15,16.45-40,1.2-4.2,2.2-8,2.2-8.4s.3-.95,.7-1.15c.85-.5,2.6-12.65,3.1-21.4,.34-6.53-.3-18.76-1.18-24.36,.09,.03,.16,.06,.18,.06,0,.05-.3-2.3-.7-5.2-.3-2.02-.51-3.28-.72-4.07,.05-.18,.04-.42-.08-.78-.2-.65-.55-2.25-.85-3.65q-1.1-5.15-1.5-2c-.15,1.65-.5,4.4-.7,6.15h0c-.11,.93-.19,1.59-.2,2.04-.06,.31-.12,.65-.2,1.06-.2,.95-.36,1.84-.46,2.62-.2,.66-.35,1.71-.59,3.38-.5,3.55-4.8,20.4-6.5,25.65-3.8,11.6-9.65,23.75-15.7,32.6-2.75,4.05-7.95,10.75-8.35,10.75-.04,0-.05-.16-.05-.43,.66-.43,1.8-3.65,1.8-5.12,0-1.3-.15-1.45-1.7-1.45-.14,0-.26,.02-.39,.03,.11-.16,.21-.3,.34-.48,.97-1.32,1.43-2.21,1.63-3.23,.62-.37,1.2-1.37,2.27-3.67,1-2.13,1.77-4.36,2.26-6.31,.48-.21,.68-.7,.99-1.79,.9-3,.8-4.55-.4-4.55-1,0-2.2,1.6-1.65,2.2,.15,.15,.1,.3-.2,.3-.4,0-1.09,1.14-1.44,2.19-.13,.08-.21,.19-.21,.36,0,.35-.9,2.4-2.05,4.6-.56,1.11-.97,1.96-1.24,2.61-.07,.04-.13,.08-.16,.14-3.8,5.45-5.75,8.1-5.9,7.9-.15-.1,.1-.85,.5-1.65,.4-.75,1.3-2.95,2-4.9,.7-1.9,1.4-3.9,1.6-4.4,.11-.26,.16-.44,.12-.56,.52-1.34,1.02-3.29,.73-3.29-.15,0-1.6,1-3.15,2.25-1.32,1.03-2.49,1.88-2.98,2.15-.05,.03-.1,.05-.14,.07-.03,.01-.07,.03-.08,.03-.06,0-.21,.09-.39,.22-1.78,.94-3.36,2.05-3.36,2.58,0,.26-1.05,1.37-2.36,2.61-.15,.08-.26,.19-.34,.32-.68,.64-1.41,1.29-2.09,1.87-.91,.25-1.77,.94-2.27,1.75-.15,.09-.27,.15-.34,.15-.25,0-2.45,2.1-4.95,4.65-4.1,4.2-7.5,9.05-8.4,11.8-.3,1-.45,.9-1.6-1.3-2.1-3.95-4.7-7.65-5.4-7.65-.04,0-.08-.02-.13-.03-.67-1.83-2.4-3.71-3.92-3.94-.38-.74-1.15-1.61-2.56-2.88-.23-.21-.47-.42-.71-.62-.08-.19-.25-.34-.52-.43-.8-.63-1.55-1.14-2.09-1.4-.46-.87-1.82-2.16-2.48-2.2-.2,0-.9-.55-1.55-1.25-.24-.26-.53-.48-.83-.67-.65-.74-1.77-1.66-2.79-2.25-.11-.67-.87-1.33-3.03-2.83-.72-.5-1.42-.96-2.02-1.35-.13-.08-.25-.16-.36-.23-.72-.46-1.24-.76-1.37-.81-.67-.3-.49,.51,.21,1.37,.11,.54,.31,1.29,.56,2.16-.1,.17-.17,.36-.17,.52,0,.28,.13,.29,.34,.06,.91,3.09,2.35,7.26,3.11,8.69,1,1.85-.1,1.2-1.7-1.05-2.4-3.35-5.2-8.25-7.55-13.2-3.05-6.45-4.55-6.25-3.15,.35,.29,1.33,.65,2.16,1.02,2.41,.36,2.38,2.1,6.56,3.08,7.19,.04,.03,.1,.05,.16,.07,.68,1.76,1.79,3.82,2.84,5.31-.13,0-.26,.01-.4,.01-1.6,0-1.75,.1-1.75,1.5,0,.85,.2,1.9,.45,2.4,.25,.45,.95,1.9,1.55,3.25,.08,.18,.17,.36,.26,.53v.07s-2.91-3.5-2.91-3.5c-7.6-9.1-16.5-25.25-20.15-36.5-.45-1.35-1-2.7-1.2-3,0,0-.02-.04-.03-.05-.04-.5-.13-1.03-.27-1.55-.11-.39-.32-.68-.57-.87-.79-2.69-1.82-6.82-2.13-8.78-.2-1.25-.8-3.8-1.35-5.75-1.69-5.9-2.83-11.67-4.12-21.13-.1-.97-.21-2.04-.33-3.32-.25-2.55-.45-3.2-.85-2.55-.21,.38-.27,1.17-.2,1.89-.67,1.76-1.72,6.84-2.45,11.86-1.25,9-1.5,31.05-.45,39.55,.45,3.7,1.05,6.9,1.25,7.15Zm78.6,74.8c-1.1,1.25-3.15,2.9-4.6,3.7-3.1,1.7-7.35,2.15-10.1,1.15-4-1.5-8.3-5.7-11.4-11.05-.8-1.5-1.5-2.85-1.5-3,0-.2,1.2,.65,2.65,1.95,6.51,5.73,14.36,7.13,21.5,4.24,.38-.01,.79-.21,1.16-.52,2.1-1,4.13-2.36,6.04-4.12,1.2-1.1,2.15-1.8,2.15-1.55,0,.8-3.95,7-5.9,9.2Zm20.55-47.44c.06-.17,.12-.33,.18-.49,.12,.07,.05,.22-.18,.49Zm-27.96,24.72c.35,.23,.59,.2,.72-.09,3.31-.41,6.55-1.3,9.55-2.7l3.3-1.55-1.75,1.8c-2.55,2.6-6.35,5-9.45,5.95-3.3,.95-9.1,1-11.7,.1-2.85-1.05-7.15-3.8-9.25-5.95l-1.85-1.9,3.3,1.55c5.28,2.45,11.3,3.38,17.14,2.79Z"/>
        <path class="cls-3" d="M19.48,188.63c.04,1.92,.29,3.48,.76,4.85,.85,2.45,1.05,2.65,4.25,4.1,1.85,.85,3.9,1.6,4.6,1.7h0c7.05,1,14.35-6.25,20.05-19.85,1.15-2.75,2.2-5.1,2.3-5.25,.5-.55,1.1,1.5,1.4,4.85,.2,2,.55,3.5,.8,3.35,.53-.3,2.81-4.19,5.02-8.34,.04,.09,.11,.14,.18,.14,.15,0,.25-.35,.25-.75,0-.05-.03-.09-.04-.14,.55-1.05,1.09-2.1,1.59-3.11,6.6-13.55,11.05-29.2,11.15-39.35,.05-2.55,.15-4.65,.3-4.65s.15-2.95,.05-6.55c-.1-5.15,0-6.65,.5-7,.6-.35,.6-.45,0-.45-.5,0-.6-.45-.4-1.8,.35-2.1-.1-4.8-.7-4.45-.2,.15-.4,1.65-.4,3.4,0,5.09-.38,7.75-2.32,14.92-.11,.04-.21,.42-.33,1.13-.01,.08-.01,.13-.02,.19-1.91,7.04-4.03,13.32-5.88,17.16-.51,1.11-.97,2.26-1.25,3.08-.32,.16-.61,.62-1.05,1.47-.35,.71-.5,1.17-.47,1.46-.09,.18-.19,.38-.28,.59-.55,1.35-2.55,4.35-4.05,6.1-.25,.3-.3-1.15-.1-3.35l.35-3.9h-.22c.02-.31,.04-.68,.05-1.1,.09-.4,.12-1.06,.12-2.15,0-1.43-.04-2.13-.23-2.46-.12-.66-.35-.79-.77-.79-1.44,0-3.56,4.38-3.94,7.91-.39,.17-.66,.36-.66,.54,0,.2-1.1,2.35-2.45,4.8-.7,1.25-1.37,2.33-2.02,3.29-.2,.2-.36,.45-.51,.73-2.22,3.08-4.38,4.72-7.52,5.93-4.19,1.64-7.82,3.96-10.76,6.85-.09,.07-.16,.15-.23,.24-2.14,2.16-3.92,4.62-5.25,7.36-.79,1.57-1.24,2.62-1.5,3.72-.15,.51-.25,1.06-.25,1.58,0,.01,0,.02,0,.03-.04,.42-.06,.9-.08,1.41-.06,.59-.14,1.15-.22,1.51h0c-.19,.69-.12,1.03,.19,1.05Z"/>
        <path class="cls-3" d="M222.19,244.67h0c-.06,.14-.1,.25-.15,.37-.12,.23-.24,.5-.35,.78-.95,2.55-3.75,6.45-5,6.9-.97,.39-1.23,.16-2.38-2.42,.03-.07,.03-.18-.02-.33-.06-.15-.16-.25-.28-.33l-1.27-2.72-.55,1.75c-.3,.95-.8,2.7-1.1,3.9-.45,1.8-.75,2.1-1.9,2.1-.75,.05-2.9,.15-4.85,.3-4.3,.3-11.5-.35-11.5-1.05-.05-1.3-1.5-6.75-1.8-6.75-.2,0-.75,1.15-1.25,2.55-1.2,3.3-1.65,3.6-3.55,2.45-1.35-.8-3.35-4.2-5.35-9-.35-.95,.05,3.35,.5,4.9,.15,.6,.45,1.1,.65,1.1,.3,0,1.7,3.15,1.8,4,0,.15,.85,1.5,1.85,3.05,2.2,3.25,5.2,5.1,10,6.15h0c4.2,.95,8.45,.95,12.3,.05,4.15-1,5.9-1.95,8.5-4.6,2.7-2.75,6.48-10.6,6.56-12.97,.33-.92,.59-2.3,.39-2.53-.15-.1-.7,.95-1.25,2.35Z"/>
      </g>
      <g id="Pecho_azul" data-name="Pecho azul">
        <path class="cls-4" d="M170.74,299.42c4.65,2.25,13.25,7.3,18.1,10.55,2.35,1.6,4.7,2.95,5.15,3,.45,.05,2,.45,3.35,.85h0c4.15,1.25,6.65,1.05,11.55-.95,2.45-.95,4.8-2.1,5.2-2.45,1.55-1.35,18.9-11.35,21.4-12.3,.95-.35,1.15-.7,.9-1.6-.15-.6-.3-1.65-.3-2.3v-3.55c0-2.12-.08-3.49-.27-4.34l-.13-2.66c-.07-.97-.16-1.66-.28-2.15,.11-.09,.18-.21,.18-.35,0-.32-.39-.49-.79-.5,0,0,0,0-.01,0-.01,0-.02,0-.04,0-.08,0-.16,.01-.24,.03,0,0,0,0,0,0-.23,.05-.44,.17-.52,.37-.2,.55-10.75,6.1-11,5.8-.09-.06-.15,.18-.14,.61-.02,.23,0,.55,.04,.99,.05,.95-.1,1.7-.35,1.7s-.45-.35-.45-.75c0-1.4-1.3-1.3-2.9,.15-.85,.8-2.8,2.2-4.35,3.15-.91,.55-1.55,1-1.98,1.39-.53,.23-1.3,.74-2.67,1.66-.4,.28-.75,.56-1.05,.82-1.07,.64-2.83,1.96-4.17,3.09-.21,.12-.51,.33-.93,.64-2.3,1.7-2.95,1.7-4.7-.15-.82-.84-1.37-1.28-1.66-1.38-1.1-.87-2.62-1.96-4.69-3.42-.02-.02-.03-.03-.05-.05-.25-.25-.49-.39-.7-.47-.64-.45-1.31-.91-2.05-1.43l-4.2-2.85-.03,.04c-.11-.06-.21-.13-.32-.19-.45-.22-.78-.36-1.1-.41-.17-.21-.38-.43-.65-.69-.95-.95-1.3-1-1.75-.5-.3,.4-.35,.85-.15,1.1,.2,.2,0,.3-.4,.15-.5-.15-.7-.75-.6-1.95,.1-.95,.05-1.55-.15-1.35s-1.05,0-1.85-.4c-.22-.11-.42-.2-.6-.28-.77-.49-2.02-1.18-3.9-2.17-2.17-1.15-3.78-1.97-4.88-2.5-.04-.05-.07-.11-.12-.15-.54-.54-.98-.67-1.27-.45-.67-.24-.72-.1-.26,.37-.16,.4-.2,1.04-.09,1.87-.11,.93-.17,2.57-.17,4.67,0,.92,0,1.77,.02,2.53-.1,.59-.16,1.47-.22,2.82-.1,2.1-.1,4.1,0,4.35,.1,.3,1.55,1.2,3.25,2Z"/>
        <path class="cls-4" d="M111.52,298.87c-.12,.13-.23,.3-.32,.51-.01,.03-.03,.07-.04,.1-.14,.23-.28,.46-.41,.7-1.75,2.9-3.15,5-3.15,4.7,0-.25,.65-3.4,1.5-7,.18-.78,.35-1.54,.51-2.25,.2-.57,.4-1.32,.44-1.8,0-.05-.01-.09-.02-.13,.34-1.56,.57-2.67,.57-2.87,0-.37-.85-.67-2.64-.93-.5-.16-1.02-.23-1.49-.19-.57-.06-1.17-.12-1.87-.18-1-.1-2.05-.35-2.4-.55-1.26-.78-2.05,.63-2.09,3.61-.11,.63-.23,1.46-.36,2.54-.08,.61-.16,1.22-.26,1.8-.31,.24-.43,.71-.59,1.65-.12,.76-.21,1.39-.26,1.93-.22,.43-.68,1.92-1.14,3.63-.56,.51-1.13,1.61-2.3,4.05-1.35,2.8-2.9,5.1-4.1,6.2l-1.95,1.75,4.05,3.15c2.2,1.75,4.75,3.75,5.6,4.5h0c.19,.17,.39,.33,.59,.48,.28,.3,.47,.42,.54,.37,.43,.27,.79,.43,.92,.4,.37-.11,1.12-1.08,2.13-2.66,.11-.05,.21-.21,.32-.51,.44-.71,.92-1.52,1.43-2.41,.3,.03,.33-.03,.12-.21,.78-1.37,1.63-2.93,2.51-4.62,1.5-2.95,2.75-5.5,2.75-5.65,0,0,0,0,0,0,.1-.19,.2-.4,.31-.64,.23-.54,.54-1.27,.86-1.99,.25-.47,.52-1.05,.79-1.76,.04-.1,.07-.18,.11-.28,.21-.47,.42-1.03,.61-1.6,2.24-5.92,2.76-7.52,3.04-9.02l.3-1.75-1.15,1.5c-.51,.68-1.96,2.99-3.43,5.44Z"/>
        <path class="cls-4" d="M314.04,315.77c-.95-.3-3.45-3-3.45-3.75-.04-.67-1.25-2.18-2.03-2.68-.07-.59-.27-1.28-.47-1.72-.16-.28-.4-.5-.66-.66-.47-2.11-1.81-5.83-2.35-6.24-.03-.69-.13-1.34-.29-1.75-.06-.17-.19-.32-.34-.44-.16-1.12-.42-2.79-.71-4.51l-.15-.81c-.02-.75-.15-1.55-.39-2.14l-.36-1.95-2.75,.3c-1.5,.15-3.7,.4-4.9,.55l-2.2,.25,.35,2.1c.2,1.15,.65,3.1,1,4.35,.38,1.34,.69,2.51,.94,3.52,.02,.13,.03,.27,.06,.43,.15,.95,.45,2.3,.6,3,.04,.13,.07,.24,.09,.35,.03,.45,0,.69-.13,.71-.38-.44-.74-.87-1.02-1.26-.11-.15-.21-.26-.3-.36-.2-.5-.58-1.18-1.2-2.24-.95-1.6-2.45-4.2-3.4-5.75-1.5-2.65-2.4-3.55-2.4-2.5,0,.25,.9,3,2.05,6.15,1.1,3.15,2.15,6.1,2.3,6.6,.13,.44,.33,.69,.58,.77,.64,1.96,2.06,5.08,3.07,6.82,0,0,0,0,0,.01,0,.29,.65,1.62,1.56,3.29,.12,.28,.27,.56,.45,.82,.87,1.56,1.89,3.29,2.79,4.74h0s2.25,3.5,2.25,3.5l1.35-.9c3.75-2.45,10.7-8.4,10.05-8.6Z"/>
        <path class="cls-4" d="M179.84,345.07c8.95,5.5,15.3,8.65,18.75,9.4h0c3.4,.75,5.25,.85,6.4,.25,.45-.25,2.75-1.15,5.1-2.05,2.35-.9,6.15-2.9,8.5-4.4,4.9-3.25,10.85-6.65,17.25-9.9,2.5-1.3,4.75-2.5,5.05-2.75,.4-.3,.2-2.15-.6-6.3-.65-3.25-1.2-6.65-1.2-7.55,0-.34-.04-.62-.1-.87,.1-.37-.06-.67-.4-1.23-.4-.6-.55-.6-1.35,.05-.5,.45-1.25,.95-1.65,1.15-1.17,.5-2.03,.99-2.61,1.49-.35,.19-1.16,.6-1.99,1.06-1.05,.5-1.9,1.25-1.9,1.65,0,.45-.3,.6-.75,.4-.64-.23-2.56,.77-3.75,1.74-1.12,.61-2.63,1.58-3.69,2.37-.79,.31-1.65,.75-2.39,1.23-.15-.07-.62,.27-1.72,1.1-1.05,.85-3.25,2.4-4.85,3.45-.91,.6-1.68,1.15-2.17,1.55-.14,.08-.28,.16-.43,.25-.74,.47-1.64,1.19-2.26,1.81-.41,.24-.96,.58-1.59,.99-.44,.3-.85,.6-1.23,.89-.39,.18-.81,.45-1.12,.76-.42,.42-1.04,.66-1.68,.75-.75-.38-1.94-1.24-3.92-2.75-.46-.36-.89-.68-1.29-.97-.5-.4-1.05-.82-1.66-1.23-1.34-.95-2.48-1.76-3.47-2.46,0-.01-.02-.02-.03-.04-.29-.35-.62-.57-.95-.66-2.58-1.82-3.87-2.71-4.54-3.05-.75-.58-1.83-1.31-2.96-1.99-.41-.26-.78-.48-1.1-.67-.53-.72-4.77-2.88-5.85-2.88-.39,0-.8-.18-1.06-.44-.04-.11-.08-.23-.14-.36-.3-.65-1.3-1.5-2.25-1.95-.79-.38-1.22-.58-1.53-.58-.37-.26-.87-.55-1.57-.92-.79-.39-1.52-.74-2.05-.96-.67-.5-1.55-.92-1.75-.69-.1,.1-.65,2.6-1.2,5.65l-.8,4.21h-.05s-.5,2.79-.5,2.79l-.5,2.75,5.3,2.85c2.9,1.5,8.4,4.7,12.25,7.05Z"/>
        <path class="cls-4" d="M288.09,277.72l2.02-.05c.08,0,.15,0,.23,0,1.89,0,3.51-.05,4.69-.13l4.81-.12,.15-2.6,.15-2.65h-.17l.02-.35c0-.06,0-.1,.01-.15h.09v-2.5c0-.71-.01-1.2-.06-1.57,.03-.09,.06-.18,.06-.28,.03-.33,.09-1.19,.18-2.19,0-.02,.02-.04,.02-.06,.79-3.99,1.32-8.03,1.35-9.98,.18-.22,.31-.5,.35-.82,.1-.6-.05-1.1-.3-1.1-.45,0-1.21,.75-1.59,1.38-.43,.38-.95,.9-1.56,1.57-.86,.97-1.49,1.78-1.89,2.46-.46,.41-1.01,.95-1.61,1.59-.2,.2-.36,.37-.53,.55l-.07-.25-1.45,1.75c-.78,.91-1.78,2.26-2.84,3.77-.22,.12-.43,.44-.71,1.03,0,0,0,.01,0,.02-1.88,2.78-3.81,5.89-4.91,7.96-.03,.04-.05,.08-.08,.12-.45,.8-.85,1.7-.85,2,0,0,0,0,0,.01,0,.01,0,.03,0,.04,0,.25,.7,.5,1.5,.5,.41,0,.71-.03,.93-.09,.58,.03,1.28,.06,2.07,.07v.07Z"/>
        <path class="cls-4" d="M248.54,360.97c-.8-2.2-1.6-4.15-1.85-4.4-.28-.28-.95-.17-1.6,.11h0s-.16,.07-.16,.07c-.01,0-.02,0-.03,.01l-2.16,1.01c-.8,.39-1.51,.72-1.98,.93-.22-.04-.42,.05-.55,.26,0,0-.02,0-.02,0-.08,.04-.22,.96-.38,2.21-.17,.27-.2,.72-.17,1.49,0,0,0,0,0,0l-.3,2.75-.98-1.64c-.03-.07-.06-.15-.07-.21-.06-.18-.17-.31-.31-.42-.55-.85-1.19-1.48-1.44-1.48-.22,0-1.36,.52-2.82,1.25-.69,.31-1.6,.78-2.83,1.45-.11,.06-.21,.12-.32,.18-1.77,.94-3.44,1.89-4.23,2.42-.32,.23-1.78,1.21-3.8,2.56-.5,.24-1.12,.62-1.9,1.14-.64,.44-1.15,.82-1.55,1.14-.57,.38-1.16,.77-1.75,1.16-2.08,1.4-4.35,2.97-6.38,4.42,.16-.23,0-.14-.62,.28-1.15,.82-2.25,1.7-3.16,2.48-.6,.45-1.1,.85-1.49,1.17-2.65,2.2-3.85,2.9-4.35,2.55-.22-.16-1.59-1.19-3.51-2.64-.27-.3-.74-.72-1.44-1.26-.46-.34-.91-.61-1.27-.77-.35-.26-.7-.52-1.06-.79-.16-.37-1.84-1.57-3.26-2.44-2.46-1.83-4.51-3.3-5.12-3.65-.46-.27-1.3-.78-2.28-1.39,0,0-.01,0-.02-.01-.16-.12-.35-.23-.54-.33-.69-.43-1.42-.88-2.11-1.32-1.41-.91-2.9-1.83-3.78-2.36-.03-.22-.6-.59-2.58-1.67-.08-.06-.17-.12-.25-.17-.34-.26-.81-.49-1.28-.66-.26-.14-.53-.29-.82-.44-1.5-.75-3.2-1.85-3.8-2.45-.1-.08-.18-.14-.27-.2l-.73-.85-1.4,2.4c-1.65,2.8-2.2,2.4-2.25-1.45l-.05-2.5-2.85-1.4c-.37-.18-.73-.35-1.09-.5-.77-.48-1.71-.85-2.11-.85-.07,0-.12,0-.17,0,0,0-.02,0-.03,0,0,0,0,0,0,0-.33,.02-.45,.09-.36,.38-.4,.63-.99,1.96-1.53,3.51-2.25,6.35-2.3,6.6-1.65,7.1,2.82,2.38,7.48,6.08,12.43,9.95,.73,.63,1.09,.93,1.22,.95,3.17,2.47,6.41,4.96,9.32,7.18,.1,.32,.24,.59,.38,.68,.22,.11,.39,.08,.46-.04,.94,.71,1.84,1.39,2.68,2.03-.09,0-.14,.02-.14,.06,0,.15,.5,.45,1.15,.7,0,0,0,0,.01,0,3.18,2.37,5.43,4,5.89,4.2,1.2,.5,3,1.3,3.95,1.8,.95,.45,2.6,1.15,3.65,1.5,1.1,.35,2.55,.9,3.25,1.3,2.3,1.2,5.7,.85,10.4-1.05,9.3-3.75,10.3-4.4,21.95-13.6,4.82-3.79,9.14-7.27,11.12-8.9,.54-.08,1-.42,1.09-.92,0,0,.03-.02,.03-.03,.4-.35,2.35-1.85,4.25-3.3,1.95-1.45,3.55-2.8,3.65-3.05,.1-.19-.18-1-.61-1.82l-1.34-3.83Z"/>
        <path class="cls-4" d="M115.59,268.72c-.03-.56-1.57-2.55-2.84-3.86-.47-.72-1.09-1.57-1.76-2.39-.75-.87-1.66-1.87-2.61-2.87,.15-.09,.04-.29-.29-.68-.35-.4-.8-.75-1.05-.75-.01,0-.02,.01-.03,.01-.61-.62-1.22-1.23-1.79-1.79-.27-.56-.87-1.14-1.5-1.43-1.12-1.04-1.92-1.69-2.03-1.59-.21,.24-.01,1.33,.28,2.2,.02,.45,.16,1.17,.42,2.35,.35,1.65,.65,3.75,.7,4.7,0,1.04,.02,1.44,.21,1.36,.03,.33,.06,.63,.09,.89,.13,.85,.24,1.39,.39,1.73-.12,1-.19,2.54-.19,4.27v6.8h3.5c.59,0,1.07,0,1.48-.01,.65,0,1.4,.01,2.27,.01,1.79,0,3.19-.04,4.23-.11,.47,.09,1.13,.11,2.12,.11,1.55,0,2.95-.15,3.05-.35,.27-.47-2.98-5.96-4.81-8.39,.09-.07,.16-.14,.16-.21Z"/>
      </g>
      <path id="Azul_shadow_pecho" data-name="Azul shadow pecho" class="cls-7" d="M196.34,400.87c-3.05-2.35-7.8-6.05-10.6-8.25-5.7-4.45-6.3-5.05-4.3-4.5,1.35,.4,9.1,3.9,11.65,5.25,.7,.35,2.1,.95,3.15,1.3,1.1,.35,2.55,.9,3.25,1.3,.75,.4,1.75,.7,2.2,.7,1.15,0,7.4-2.55,15.05-6.1,3.55-1.65,6.5-2.9,6.65-2.8,.1,.1-.85,1.1-2.15,2.15-3.15,2.65-19.1,15.25-19.3,15.25-.1,0-2.6-1.95-5.6-4.3h0Zm.5-44.3c-2.45-1.9-6.85-5.05-9.75-6.95-2.9-1.9-5.45-3.6-5.75-3.85-.25-.2-.9-.55-1.35-.75-.5-.15-.9-.55-.9-.85,0-.55,.15-.5,6.75,2.7,10.15,4.9,12.25,5.75,14.65,6.2,1.4,.25,2.7,.35,2.85,.2,.1-.15,1.5-.7,3.1-1.2,1.55-.55,5.65-2.3,9.05-3.95,3.45-1.6,6.4-2.95,6.6-2.95s.95-.5,1.7-1.05c.75-.6,1.45-.95,1.6-.8,.15,.15-1,1.1-2.65,2.15-5.05,3.25-7.25,4.75-14.05,9.8-3.65,2.7-6.8,4.9-7,4.85-.2,0-2.35-1.6-4.85-3.55h0Zm-19.75-13.4c0-.25,.35-.5,.75-.5s.75,.25,.75,.5c0,.3-.35,.5-.75,.5s-.75-.2-.75-.5Zm-7-3.95c-.95-.45-3.2-1.6-4.95-2.5-2.2-1.15-3-1.8-2.65-2.15s.95-.2,1.95,.45c.75,.55,2.1,1.3,2.9,1.75,2.2,1.05,3.85,2.05,4.65,2.8,.95,.85,.15,.7-1.9-.35Zm62.5,.3c.15-.15,1.5-1.1,3-2.15,1.5-1,2.85-2.05,3-2.25,.4-.6,2.4-.8,2.6-.25,.1,.25-1.2,1.15-2.85,2-3.45,1.8-6.1,3-5.75,2.65Zm-35.25-23.45c-7.8-6-15.8-11.1-24.75-15.8-4.55-2.35-5.85-3.3-5.15-3.75,.45-.3,4.1,1.85,5.8,3.35,.45,.45,1.1,.8,1.4,.8,.5,0,4.5,2,4.95,2.55,.5,.55,6,3.45,6.6,3.45,.3,0,.95,.3,1.35,.65,1.3,1.1,9.6,4.65,12.4,5.3,2.35,.6,2.9,.55,5.45-.45,4-1.45,8.25-3.5,9.65-4.6,.65-.5,1.7-.9,2.3-.9,.65,0,1.3-.35,1.45-.8,.15-.45,.6-.7,.95-.55,.3,.1,1-.1,1.5-.55,.9-.8,1.7-.55,1.1,.35-.15,.3-1.25,1.05-2.4,1.6-2.55,1.3-8.85,5.65-13.6,9.35-1.9,1.55-3.7,2.9-4,3.1-.25,.2-2.5-1.2-5-3.1h0Zm114.15,.7c-4.4-5.2-8.35-14.6-9.4-22.6-.3-2.35-.85-4.4-1.15-4.6-.35-.2,.1-.4,.95-.4,1.35,0,1.6,.2,1.9,1.5,.75,4,7,18.15,10.05,23.05,1.1,1.7,1.15,1.9,.35,2.55-1.5,1.3-1.95,1.4-2.7,.5h0Zm-222-.4c-.75-.8-.75-1,.5-2.9,2.1-3.35,6.9-13.75,8.65-18.85,1.8-5.25,2.25-6,3.2-5.65,.5,.2,.55,.65,.2,1.85-.25,.9-.45,2.25-.45,3,0,5.1-4.85,17.5-8.3,21.35-2,2.2-2.6,2.4-3.8,1.2h0Zm134.2-12.8c.15-.35,1.1-.95,2.2-1.35,1.05-.4,2.8-1.35,3.8-2.1,1-.8,2.15-1.45,2.5-1.45s1.2-.45,1.9-1c1.4-1.1,2-1.25,2-.5,0,.25-.85,.9-1.85,1.4-1.9,.95-4.65,2.45-8.3,4.55-2.15,1.2-2.5,1.3-2.25,.45h0Z"/>
      <g id="White">
        <path class="cls-5" d="M85.99,129.72c1.65,.1,5.45,.5,8.35,.85,14.85,1.9,27.2-5.05,32.4-18.3,1.2-3.1,1.55-4.85,1.75-8.85,0-.05,0-.09,0-.14,.34-3.65,.23-5.9-.36-6.94-.27-1.49-.68-3.32-1.29-5.92-1-4.4-2.15-8.65-2.5-9.5-.65-1.45-.65-1.4-.35,1,.2,1.4,.35,5.35,.35,8.85,0,2.51,0,4.03,.07,4.95,0,.03-.02,.06-.02,.1-.57,3.9-.89,6.37-.99,7.95-.08,.35-.17,.73-.26,1.15-1.9,8.9-6.45,16.4-12.25,20.1-4.15,2.7-8.15,3.8-13.8,3.85-2.9,.05-6.65-.15-8.35-.35-2.7-.35-3.15-.3-3.15,.35,0,.45,.15,.8,.4,.85Z"/>
        <path class="cls-5" d="M20.84,182.87c.4-.5,.75-1.15,.75-1.4s1-1.85,2.25-3.6c3.55-4.9,8.75-8.85,15.3-11.5,1.75-.7,3.85-1.9,4.65-2.6,2.8-2.6,7-9.8,10.3-17.8,1.3-3,1.75-4.9,1.9-8,.1-2.2,.05-3.9-.2-3.65-.2,.2-.9,2.2-1.55,4.5-2.25,7.9-8.25,18.65-12.55,22.35-1.05,.95-3.85,2.75-6.15,4-5.45,2.95-11.6,8.9-13.85,13.45-.9,1.75-1.6,3.65-1.6,4.25q0,1,.75,0Z"/>
        <path class="cls-5" d="M170.74,96.77c-1.2-1.81-2.04-3.03-2.67-3.85-.08-.26-.73-1.71-1.48-3.4-.45-.93-.79-1.61-1.1-2.1,.07-.29-.17-.92-.65-2.25-.4-1.15-.6-2.3-.45-2.55,.15-.25,.1-.75-.1-1.05-.25-.35-.45-.95-.5-1.4-.05-.4-.55-2.45-1.15-4.5-.55-2.05-1.25-5.2-1.65-7l-.65-3.25-.35,3.75c-.49,5.42-.11,11.18,1.24,17.95,.15,.96,.46,2.3,.8,3.44,.31,1.23,.62,2.35,.81,2.86,1.4,3.6-5.9-8.6-9.95-16.7-5.55-11-10.45-24.05-13-34.55-1.25-5.05-1.4-5.9-2.1-10.1-.2-1.05-.55-1.9-.8-1.9s-.35,.6-.2,1.4c.15,.75,.4,2.6,.55,4.1,1.25,11.1,5.75,28.05,10.35,39,6.7,15.75,14.2,27.3,24.1,36.95,2.95,2.85,5.45,5.05,5.6,4.95,.1-.15-1.25-2.7-3.05-5.7-1.75-2.95-3.5-6.2-3.8-7.15-.3-1-.85-2.1-1.15-2.5-.45-.6-.4-.6,.5-.15,.6,.3,1.2,.85,1.35,1.25,.35,.9,7.8,6.55,8.15,6.2,.2-.15-.85-1.6-2.3-3.2-1.4-1.6-4.25-5.45-6.35-8.55Z"/>
        <path class="cls-5" d="M281.64,120.42c4.85,6,11,9.25,19.2,10.3,4.45,.5,12-.2,15.45-1.55,2.2-.8,1.25-1.15-1.75-.55-4.15,.75-12.2,.3-15.8-.85-13.35-4.25-20.35-19.1-19.5-41.1l.25-6.75-2.4,9.7c-2.65,10.5-2.75,12.35-1.2,19.05,1.05,4.55,2.8,8.1,5.75,11.75Z"/>
        <path class="cls-5" d="M319.54,128.52c.45-.4,1.25-.85,1.75-1.05,1.65-.55,.6-.8-1.35-.25-1.3,.35-1.7,.7-1.5,1.25,.25,.65,.4,.65,1.1,.05Z"/>
        <path class="cls-5" d="M122.69,211.62c.8-.35,1.3-.7,1.25-.8-.2-.15-5.15,1.2-6.6,1.85-4.55,2-26,7.5-29.3,7.5-.7,0-.55-.8,.65-3.4,.6-1.3,1.15-2.55,1.3-2.85,.1-.25-1.3,1.15-3.15,3.15s-4.4,4.45-5.65,5.4h0c-1.25,.95-2.05,1.7-1.8,1.7,1.05,0,8.9-1.5,13-2.5,2.45-.6,4.9-1.15,5.45-1.3,2.2-.4,20.9-6.75,22.65-7.65,.45-.25,1.45-.7,2.2-1.1Z"/>
        <path class="cls-5" d="M100.59,177.67c1.35,.45,5,.65,5,.25,0-.25-1.1-.55-12.1-3.55-3.8-1-6.9-2-6.9-2.15s.95-.85,2.1-1.55c4.1-2.5,6.9-7.85,6.9-12.95-.05-2.15-.1-2.25-.75-1.35-.4,.55-.75,1.4-.75,1.9,0,2-2.6,6.55-5.15,9.05-2.8,2.75-8.1,5.7-11.1,6.2-2.3,.35-2.75,1.15-.65,1.15,2.5,0,22,2.5,23.4,3h0Z"/>
        <path class="cls-5" d="M350.59,148.17c3.1,8,9.65,17.5,12,17.5,2.1,0,10.15,4.7,13.25,7.7,2.75,2.7,6.25,7.2,6.25,8.05,0,.15,.35,.85,.8,1.55h0c1.25,1.85,1.35,1.1,.25-1.8-2.3-6.05-8.15-12.25-15.05-16.05-5.35-2.9-6.65-4-9.75-8.2-4.4-5.9-9.75-18-9.75-21.95,0-.7-.25-1.3-.6-1.3-.85,0-.1,10.45,.8,11.2,.4,.3,1.25,1.8,1.8,3.3Z"/>
        <path class="cls-5" d="M57.09,283.92c-1.8,1.3-3.45,2.6-3.75,2.85-.3,.3,.2,1.1,1.5,2.2h0c1.1,.9,2.25,1.7,2.6,1.7,.3,0,3.05-3.3,6.1-7.35,3-4.1,6.45-8.6,7.6-10.05,1.15-1.45,2-2.7,1.9-2.8-.1-.15-1.65,1.15-3.45,2.85-4.1,3.9-8.35,7.5-12.5,10.6Z"/>
        <path class="cls-5" d="M36.24,275.97c-8.65-5.25-13.3-14.4-13.8-27.05l-.1-3-2.35-.8c-1.3-.4-2.55-.95-2.75-1.1-.15-.2-.75-.35-1.25-.35-.55,0-1.6-.35-2.45-.75l-1.45-.8,.25,3.65c.2,2,.4,4.05,.55,4.5,.15,.5,.4,1.5,.5,2.25,1.8,9.85,8.95,19.15,17.7,23.05,1.25,.55,3.05,1.35,4,1.75,1.65,.75,4,1.1,4,.65,0-.15-1.3-1-2.85-2Z"/>
        <path class="cls-5" d="M65.5,139.53c.12-.2,.24-.42,.34-.66,.25-.62,.64-1.91,1.04-3.35,.13-.09,.21-.21,.21-.35,0-.06-.02-.13-.06-.19,.74-2.75,1.45-5.81,1.26-5.81-.21,0-1.15,2.13-2.46,5.65-.14,.09-.24,.22-.24,.35,0,.06,.02,.11,.05,.16-.18,.48-.36,.97-.55,1.49-.63,1.71-.93,2.7-.99,3.25-.72,1.21-1.74,3.08-2.81,5.2-1.8,3.6-3.65,7.15-4.15,7.85-.95,1.4-1.85,3.25-3.8,7.75-1.2,2.8-1.2,2.9-.25,2.05,2.8-2.5,8.85-13.2,11.2-19.65,.7-1.95,1.08-3.09,1.21-3.74Z"/>
        <path class="cls-5" d="M42.04,208.57c-1.45,1.85-2.8,3.45-2.95,3.6-.65,.55-17,21-17,21.2,0,.15,.6,.35,1.4,.45,3.45,.5,3.2,.7,7.85-6.75,5.3-8.55,10.3-16.35,12.3-19.35,2.35-3.35,1.4-2.9-1.6,.85Z"/>
        <path class="cls-5" d="M309.29,156.72c-.25-2.05-.45-2.45-.8-1.8-.65,1.1-.1,6.75,.85,9.1,1.1,2.6,4.1,6.1,6.05,7.05,.95,.4,1.7,.95,1.7,1.1,0,.2-3.2,1.15-7.1,2.2-9.85,2.6-11.05,3-11.3,3.7h0c-.1,.35,.1,.5,.5,.4,3.05-1,10.05-2,26.15-3.75l3-.3-3-1c-8.9-2.85-15.05-9.25-16.05-16.7Z"/>
        <path class="cls-5" d="M337.04,132.67c-.75-2.05-1.4-3.3-1.4-2.8-.05,1.05,1.25,6.35,1.95,8.05,.25,.55,.8,2.25,1.25,3.75s1.4,3.9,2.05,5.3c.65,1.4,1.2,2.7,1.2,2.9,0,.55,4.9,8.35,7.05,11.2,1.1,1.4,2.05,2.6,2.2,2.6,.35,0-3.6-8.75-4.85-10.8-2.75-4.3-6.8-12.95-9.45-20.2Z"/>
        <path class="cls-5" d="M270.09,282.42c-1.5-5.45-1.85-5.95-2.05-2.9-.1,1.4-.05,2.45,.1,2.35,.2-.1,.6,1.2,.95,2.95,1.65,8.5,5.25,22.1,8.1,30.6,2.05,6.2,6.75,18.6,7.4,19.5,.2,.3,.5,1.1,.7,1.9h0c.4,1.8,1,1.7,3.75-.5,1.25-1,2.35-1.9,2.45-1.95,.1-.05-2.35-5.1-5.35-11.25-7.5-15.25-12.55-28.1-16.05-40.7Z"/>
        <path class="cls-5" d="M348.29,285.67c-3.4-2.4-8.45-6.7-12.5-10.6-2-1.85-3.75-3.4-3.95-3.4-.4,0,.9,2.2,2.25,3.75,1.6,1.9,8.85,11.5,10.25,13.6l1.35,2.15,2.25-1.65c1.25-.85,2.3-1.7,2.45-1.9,.1-.15-.85-1.05-2.1-1.95Z"/>
        <path class="cls-5" d="M377.34,233.82c.95,.2,3.8-.1,4.2-.45,.05-.05-4.1-5.4-9.25-11.8-5.2-6.4-9.7-12-10.05-12.4-4.75-5.95-4.6-5,.45,2.7,2.3,3.45,6.3,9.8,8.9,14,3.1,5,5.1,7.8,5.75,7.95Z"/>
        <path class="cls-5" d="M233.39,84.77c-.2-.15-.95,.3-1.7,1-2.34,2.15-5.34,3.99-14.99,9.17-.97,.36-1.77,.8-2.38,1.29-4.3,2.36-7.93,4.65-10.43,6.59-1.3,1.05-2.1,1.4-2.55,1.05-4.35-3.1-10.45-6.9-17-10.45-4.4-2.4-9.3-5.4-10.9-6.6-1.6-1.25-3.05-2.15-3.2-1.95-.5,.45,6.35,7.2,11.35,11.2,11.25,8.95,16.25,14.85,19.25,22.8,.5,1.3,1.05,2.15,1.25,1.95,.2-.2,.8-1.5,1.3-2.9,1.65-4.5,4.3-8.4,9.2-13.5,1.59-1.67,2.85-3.1,3.71-4.2,.99-.28,3.38-2.01,6.29-4.6l.57-.51c.28-.2,.59-.42,.93-.69,3.2-2.5,9.7-9.2,9.3-9.65Z"/>
        <path class="cls-5" d="M323.34,223.07c-1.74-1.28-6.89-6.39-8.26-8.23,.03-.3-.23-.75-.74-1.17-.8-.7-.9-.5-.45,.7,.07,.2,.17,.36,.29,.5,.1,.31,.24,.66,.41,1.05,.5,1.1,1.05,2.5,1.25,3.15,.35,1.15,.3,1.15-2.1,.85-5.25-.7-25.35-6.05-28.1-7.5-.75-.35-2.25-.8-3.3-1l-2-.3,1.75,.95c.95,.5,4.45,1.9,7.75,3.05,3.3,1.2,6.45,2.35,7,2.55,2.5,1.1,13.45,3.9,21.3,5.45,6.45,1.3,7.1,1.3,5.2-.05Z"/>
        <path class="cls-5" d="M124.74,307.67c-3.25,7.75-11.15,24.05-12.3,25.4-.5,.6-.15,1.1,1.9,2.9,1.35,1.2,2.7,2.2,3,2.2,1.55,0,11.1-26.9,14.45-40.5,1.8-7.5,3.3-15.3,3.55-18.5l.25-2.75-1,3.25c-3.35,10.95-6.95,21.25-9.85,28Z"/>
        <path class="cls-5" d="M391.49,242.42c-.15-.15-2.5,.6-5.2,1.7l-4.95,1.95-.3,5.45c-.5,8.25-2.85,14.15-7.75,19.6-2.35,2.6-7.8,6.55-9.05,6.55-.35,0-.65,.25-.65,.5,0,.7,.4,.65,4.55-.8,10.13-3.52,16.61-9.45,20.22-18.63,.24-.24,.41-.62,.63-1.22,.18-.47,.34-1.2,.45-1.97,1.29-4.62,2.6-12.59,2.05-13.13Z"/>
        <path class="cls-5" d="M266.64,30.67c-.45,0-.8,1.1-1.3,4.65-1.05,7.55-6.2,23.35-10.85,33.6-1.53,3.35-2.89,6.34-3.2,7.03-.37,.57-.81,1.38-1.35,2.47-.34,.72-.66,1.42-.94,2.06-2.98,5.33-7.58,13.25-7.86,13.44-.2,.1,.15-1.85,.8-4.35s1.4-7.1,1.7-10.25c.55-5.65,.2-13.65-.55-12.85-.2,.25-.65,2.2-1,4.4-.3,2.15-1,5.2-1.55,6.75-1.05,3.25-1.15,3.75-.45,3.3,.65-.4-2.05,6.85-4.05,10.85-1.7,3.45-6.4,10.2-9.8,14.1-3.8,4.4-1.7,3.5,4.6-2,3.1-2.7,3.65-3.05,3.15-1.85-1.35,3-5.05,9.95-6.45,11.95-.8,1.2-1.45,2.25-1.45,2.45h0c0,1.25,8.55-6.85,12.6-12,5.07-6.43,12.66-18.66,14.49-23.1,.12-.27,.26-.56,.41-.9,.37-.81,.63-1.43,.82-1.95,0,0,.03,0,.03,0,.05-.05,1.1-2.6,2.35-5.7,4.15-10.25,7.55-23.05,9.05-33.65,.4-3.15,.9-6.3,1-7.1,.15-.75,.05-1.35-.2-1.35Z"/>
      </g>
    </g>
  </g>
</svg>